<svg width="20" height="21" viewBox="0 0 20 21" fill="none" xmlns="http://www.w3.org/2000/svg">
    <path
      d="M9.85425 12.7457H10.1457C11.7489 12.7457 13.1091 11.7189 13.5878 10.2951C13.6573 10.0878 13.4982 9.87416 13.2779 9.87416H12.3802C12.0944 9.87416 11.8635 9.64616 11.8635 9.36475C11.8635 9.08253 12.0944 8.85373 12.3802 8.85373H13.2504C13.5386 8.85373 13.7719 8.62334 13.7719 8.33874C13.7719 8.05413 13.5386 7.82374 13.2504 7.82374H12.3802C12.0944 7.82374 11.8635 7.59494 11.8635 7.31352C11.8635 7.03131 12.0944 6.80251 12.3802 6.80251H13.2504C13.5386 6.80251 13.7719 6.57211 13.7719 6.28751C13.7719 6.0029 13.5386 5.77251 13.2504 5.77251H12.3802C12.0944 5.77251 11.8635 5.54371 11.8635 5.2615C11.8635 4.98008 12.0944 4.75128 12.3802 4.75128H13.3239C13.5402 4.75128 13.6952 4.5472 13.6371 4.34072C13.2084 2.83479 11.8078 1.73145 10.1457 1.73145H9.85425C7.85143 1.73145 6.22803 3.33384 6.22803 5.31252V9.16465C6.22803 11.1425 7.85143 12.7457 9.85425 12.7457Z"
      fill="currentColor"
    />
    <path
      opacity="0.4"
      d="M16.2762 8.25293C15.8305 8.25293 15.4689 8.60928 15.4689 9.05014C15.4689 12.0277 13.0156 14.4505 10.0005 14.4505C6.98455 14.4505 4.53128 12.0277 4.53128 9.05014C4.53128 8.60928 4.16962 8.25293 3.72401 8.25293C3.2784 8.25293 2.91675 8.60928 2.91675 9.05014C2.91675 12.6376 5.66629 15.5992 9.19322 15.997V17.601C9.19322 18.0411 9.55407 18.3982 10.0005 18.3982C10.4461 18.3982 10.8077 18.0411 10.8077 17.601V15.997C14.3339 15.5992 17.0834 12.6376 17.0834 9.05014C17.0834 8.60928 16.7218 8.25293 16.2762 8.25293Z"
      fill="currentColor"
    />
  </svg>