<?xml version="1.0" encoding="UTF-8"?>
<svg xmlns="http://www.w3.org/2000/svg" viewBox="0 0 495 495">
  <defs>
    <style>
      .cls-1 {
      strokeWidth: 30px;
      }

      .cls-1, .cls-2 {
      stroke: #b22b4b;
      }

      .cls-1, .cls-2, .cls-3 {
      fill: none;
      strokeLinecap: round;
      stroke-linejoin: round;
      }

      .cls-2, .cls-3 {
      strokeWidth: 10px;
      }

      .cls-4 {
      fill: #00326f;
      }

      .cls-3 {
      stroke: #004b96;
      }

      .cls-5 {
      fill: #dd3052;
      }
    </style>
  </defs>
  <g id="Layer_2" data-name="Layer 2">
    <path class="cls-4"
      d="m124.76,99c-18.77-5.19-38.34-2.79-55.12,6.39-16.78,9.58-29.16,25.16-34.35,43.53-7.99,28.36,1.2,58.31,23.16,76.29,2.39,2,3.59,5.19,2.8,8.39l-15.58,59.91,9.19,20.37c1.6,3.59.4,7.59-2.8,9.98l-14.77,9.58,7.59,15.58c1.6,3.59.4,7.99-2.8,9.98l-14.38,9.19,7.59,15.58c2,3.99.4,8.39-3.2,10.38l-13.58,7.99,14.38,26.36,29.95-17.57,45.93-160.56c.8-3.19,3.6-5.19,6.39-5.59,27.16-3.59,51.52-26.76,59.91-56.31,10.78-38.74-11.58-78.68-50.33-89.47Zm.4,44.34c-2,6.39-8.79,10.38-15.18,8.39-2.79-.8-5.59-2.8-7.19-5.59-1.6-2.8-2-5.99-1.2-9.19,1.2-5.19,6.39-8.78,11.58-8.78,1.2,0,2,0,3.59.4,2.8.8,5.59,2.8,7.19,5.59,1.6,2.79,2,5.99,1.2,9.19Z" />
    <path class="cls-5"
      d="m225.41,139.34l8.39,88.26v.8c0,3.19,2.4,7.19,5.99,10.78l119.62,119.62c5.84,5.84,15.31,5.83,21.14-.02l84.75-85.07c5.81-5.84,5.81-15.28-.02-21.1l-119.66-119.66c-3.59-3.59-7.99-5.99-10.78-5.99h-.8l-89.86-8.39c-4.79,0-8.79,2-12.78,5.99-4.39,4.39-5.99,8.39-5.99,14.78Z" />
  </g>
  <g id="Layer_1" data-name="Layer 1">
    <path class="cls-2" d="m222.39,180.66c-11.31,8.18-25.22,13-40.24,13" />
    <path class="cls-3"
      d="m18.52,402.14l14.38,26.36,29.95-17.57,45.93-160.56c.8-3.19,3.6-5.19,6.39-5.59,27.16-3.59,51.52-26.76,59.91-56.31,10.78-38.74-11.58-78.68-50.33-89.47-18.77-5.19-38.34-2.79-55.12,6.39-16.78,9.58-29.16,25.16-34.35,43.53-7.99,28.36,1.2,58.31,23.16,76.29,2.39,2,3.59,5.19,2.8,8.39l-15.58,59.91,9.19,20.37c1.6,3.59.4,7.59-2.8,9.98l-14.77,9.58,7.59,15.58c1.6,3.59.4,7.99-2.8,9.98l-14.38,9.19,7.59,15.58c2,3.99.4,8.39-3.2,10.38l-13.58,7.99Z" />
    <path class="cls-3"
      d="m113.18,128.16c-5.2,0-10.39,3.59-11.58,8.78-.8,3.2-.4,6.39,1.2,9.19,1.6,2.79,4.4,4.79,7.19,5.59,6.39,2,13.18-2,15.18-8.39.8-3.19.4-6.39-1.2-9.19-1.6-2.8-4.39-4.79-7.19-5.59-1.6-.4-2.39-.4-3.59-.4Z" />
    <path class="cls-2"
      d="m225.41,139.34l8.39,88.26v.8c0,3.19,2.4,7.19,5.99,10.78l119.62,119.62c5.84,5.84,15.31,5.83,21.14-.02l84.75-85.07c5.81-5.84,5.81-15.28-.02-21.1l-119.66-119.66c-3.59-3.59-7.99-5.99-10.78-5.99h-.8l-89.86-8.39c-4.79,0-8.79,2-12.78,5.99-4.39,4.39-5.99,8.39-5.99,14.78Z" />
    <path class="cls-2"
      d="m114.12,133.46c-.44-2.82-.69-5.68-.74-8.57-.66-36.98,31.35-68.86,68.77-68.77,33.43.08,63.03,25.67,68.27,60.48" />
    <line class="cls-1" x1="353.61" y1="196.05" x2="303.69" y2="245.98" />
    <line class="cls-1" x1="398.75" y1="241.19" x2="348.82" y2="291.11" />
  </g>
</svg>