<svg id="Layer_3" data-name="Layer 3" xmlns="http://www.w3.org/2000/svg" viewBox="0 0 96 96" fill="currentColor"><defs><style>.cls-1{fill:none;stroke:#fff;stroke-miterlimit:10;strokeWidth:6px;}</style></defs><circle class="cls-1" cx="37.02" cy="32" r="15"/><path class="cls-1" d="M12,79.38A21.38,21.38,0,0,1,33.38,58h7.15A21.38,21.38,0,0,1,61.9,79.38"/><path class="cls-1" d="M52.8,18.09a15,15,0,1,1,6.07,28.72,14.81,14.81,0,0,1-6.07-1.29"/><path class="cls-1" d="M57.6,57.81h4.78A21.38,21.38,0,0,1,83.75,79.19"/><path class="cls-1" d="M48,42.18a15,15,0,0,0-.19-20.55"/><path class="cls-1" d="M47.61,59.21A21.36,21.36,0,0,1,61.9,79.38"/></svg>