<svg width="22" height="22" viewBox="0 0 22 22" fill="none" xmlns="http://www.w3.org/2000/svg">
  <path
    d="M20.1667 7.80968V3.64801C20.1667 2.35551 19.58 1.83301 18.1225 1.83301H14.4192C12.9617 1.83301 12.375 2.35551 12.375 3.64801V7.80051C12.375 9.10217 12.9617 9.61551 14.4192 9.61551H18.1225C19.58 9.62467 20.1667 9.10218 20.1667 7.80968Z"
    stroke="currentColor" strokeWidth="1.5" strokeLinecap="round" stroke-linejoin="round" />
  <path
    d="M20.1667 18.1225V14.4192C20.1667 12.9617 19.58 12.375 18.1225 12.375H14.4192C12.9617 12.375 12.375 12.9617 12.375 14.4192V18.1225C12.375 19.58 12.9617 20.1667 14.4192 20.1667H18.1225C19.58 20.1667 20.1667 19.58 20.1667 18.1225Z"
    stroke="currentColor" strokeWidth="1.5" strokeLinecap="round" stroke-linejoin="round" />
  <path
    d="M9.62492 7.80968V3.64801C9.62492 2.35551 9.03825 1.83301 7.58075 1.83301H3.87742C2.41992 1.83301 1.83325 2.35551 1.83325 3.64801V7.80051C1.83325 9.10217 2.41992 9.61551 3.87742 9.61551H7.58075C9.03825 9.62467 9.62492 9.10218 9.62492 7.80968Z"
    stroke="currentColor" strokeWidth="1.5" strokeLinecap="round" stroke-linejoin="round" />
  <path
    d="M9.62492 18.1225V14.4192C9.62492 12.9617 9.03825 12.375 7.58075 12.375H3.87742C2.41992 12.375 1.83325 12.9617 1.83325 14.4192V18.1225C1.83325 19.58 2.41992 20.1667 3.87742 20.1667H7.58075C9.03825 20.1667 9.62492 19.58 9.62492 18.1225Z"
    stroke="currentColor" strokeWidth="1.5" strokeLinecap="round" stroke-linejoin="round" />
</svg>