<svg width="40" height="40" viewBox="0 0 40 40" fill="none" xmlns="http://www.w3.org/2000/svg">
<circle cx="20" cy="20" r="20" fill="#F8EB7C"/>
<path fill-rule="evenodd" clip-rule="evenodd" d="M21.4499 12.8802H24.5199C28.2099 12.8802 30.0099 14.8502 29.9999 18.8902V23.7602C29.9999 27.6202 27.6199 30.0002 23.7499 30.0002H16.2399C12.3899 30.0002 9.99988 27.6202 9.99988 23.7502V16.2402C9.99988 12.1002 11.8399 10.0002 15.4699 10.0002H17.0499C17.9809 9.99017 18.8499 10.4202 19.4199 11.1502L20.2999 12.3202C20.5799 12.6702 20.9999 12.8802 21.4499 12.8802ZM15.3699 23.2902H24.6299C25.0399 23.2902 25.3699 22.9502 25.3699 22.5402C25.3699 22.1202 25.0399 21.7902 24.6299 21.7902H15.3699C14.9499 21.7902 14.6199 22.1202 14.6199 22.5402C14.6199 22.9502 14.9499 23.2902 15.3699 23.2902Z" fill="#987805"/>
</svg>
