<svg width="192" height="104" viewBox="0 0 192 104" fill="none" xmlns="http://www.w3.org/2000/svg">
<g style="mix-blend-mode:luminosity" clip-path="url(#clip0_1232_31601)">
<path d="M178.772 40.6077L146.606 96.3194C146.202 97.0199 145.305 97.2602 144.605 96.8558L102.345 72.4571C101.645 72.0527 101.404 71.1559 101.809 70.4554L133.974 14.7437C134.378 14.0431 135.275 13.8029 135.976 14.2073L178.235 38.6059C178.936 39.0104 179.176 39.9072 178.772 40.6077Z" fill="#FAD207"/>
<path d="M133.121 20.9099L104.798 69.9679C104.511 70.4643 104.681 71.0988 105.177 71.3854L130.784 86.1694C131.121 86.3637 131.521 86.4164 131.896 86.3158L147.324 82.182L170.697 41.699L136.042 21.6911L136.72 20.023L134.296 20.1804C133.807 20.212 133.366 20.4858 133.121 20.9099Z" fill="#FAA515"/>
<path d="M172.766 42.2169L150.126 81.4308L140.9 79.8266L134.112 85.7218L108.35 70.8481C107.649 70.4435 107.409 69.5473 107.814 68.8464L135.583 20.749C135.988 20.0481 136.884 19.808 137.585 20.2127L172.23 40.2152C172.931 40.6198 173.171 41.516 172.766 42.2169Z" fill="#F5F5F5"/>
<path d="M150.126 81.4309L134.112 85.7218L139.241 76.8384C139.646 76.1375 140.542 75.8974 141.243 76.302L150.126 81.4309Z" fill="#E6E6E6"/>
<path d="M167.679 37.588L166.256 40.0537C165.246 41.8025 163 42.4043 161.251 41.3947L142.053 30.3105C140.304 29.3008 139.702 27.0549 140.712 25.3061L142.135 22.8403L167.679 37.588Z" fill="#E6E6E6"/>
<path d="M144.333 19.0327L169.877 33.7803L167.679 37.5875L142.135 22.8399L144.333 19.0327Z" fill="#FAA515"/>
<path d="M167.975 32.6786L164.352 38.9537C163.947 39.6546 163.051 39.8947 162.35 39.49L143.152 28.4062C142.452 28.0015 142.211 27.1053 142.616 26.4044L146.239 20.1293L153.283 24.1964C153.422 23.7399 153.636 23.2954 153.93 22.8795C155.201 21.0841 157.63 20.467 159.606 21.433C161.991 22.5993 162.854 25.5164 161.549 27.7767C161.371 28.0842 161.163 28.3631 160.93 28.6116L167.975 32.6786Z" fill="#50758D"/>
<path d="M135.653 41.111C135.408 40.9692 135.226 40.7377 135.147 40.4644L133.716 35.5163C133.548 34.9332 133.884 34.3238 134.467 34.1553C135.05 33.9869 135.66 34.323 135.828 34.9059L136.939 38.7512L143.426 36.5654C144.001 36.3716 144.625 36.6806 144.819 37.256C145.012 37.8311 144.703 38.4547 144.128 38.6485L136.553 41.2008C136.269 41.2965 135.958 41.272 135.693 41.1329C135.68 41.1259 135.666 41.1185 135.653 41.111Z" fill="#5ED297"/>
<path d="M158.994 51.1239L145.542 43.3574C145.016 43.0539 144.836 42.3819 145.14 41.8561C145.443 41.3303 146.115 41.1503 146.641 41.4538L160.093 49.2203C160.619 49.5239 160.799 50.1959 160.496 50.7217C160.192 51.2474 159.52 51.4275 158.994 51.1239Z" fill="#50758D"/>
<path d="M129.189 52.3077C128.943 52.1659 128.761 51.9344 128.682 51.6611L127.252 46.713C127.083 46.1299 127.419 45.5205 128.002 45.352C128.586 45.1834 129.195 45.5196 129.363 46.1026L130.476 49.95L136.963 47.7782C137.538 47.5853 138.161 47.8957 138.354 48.4715C138.547 49.0471 138.236 49.6699 137.661 49.8626L130.087 52.3981C129.803 52.4931 129.493 52.4682 129.227 52.3291C129.214 52.3222 129.201 52.315 129.189 52.3077Z" fill="#5ED297"/>
<path d="M152.556 62.2753L139.104 54.5088C138.578 54.2052 138.398 53.5332 138.702 53.0075C139.006 52.4817 139.677 52.3016 140.203 52.6052L153.655 60.3717C154.181 60.6753 154.361 61.3473 154.058 61.873C153.754 62.3988 153.082 62.5789 152.556 62.2753Z" fill="#50758D"/>
<path d="M145.879 73.8403L143.658 72.5581C143.133 72.2545 142.953 71.5825 143.256 71.0568C143.56 70.531 144.232 70.3509 144.757 70.6545L146.978 71.9367C147.504 72.2403 147.684 72.9123 147.381 73.438C147.077 73.9638 146.405 74.1439 145.879 73.8403Z" fill="#50758D"/>
<path d="M139.217 69.9936L132.427 66.0737C131.901 65.7702 131.721 65.0982 132.025 64.5724C132.328 64.0466 133 63.8666 133.526 64.1701L140.316 68.09C140.841 68.3936 141.022 69.0656 140.718 69.5913C140.414 70.1171 139.742 70.2972 139.217 69.9936Z" fill="#50758D"/>
<path d="M125.792 66.1348L119.955 62.7644C119.429 62.4609 119.249 61.7889 119.553 61.2631L122.923 55.4254C123.226 54.8997 123.898 54.7196 124.424 55.0232L130.262 58.3935C130.788 58.6971 130.968 59.3691 130.664 59.8948L127.294 65.7325C126.99 66.2582 126.318 66.4383 125.792 66.1348ZM122.006 61.4103L125.94 63.6817L128.211 59.7476L124.277 57.4763L122.006 61.4103Z" fill="#FD646F"/>
</g>
<g style="mix-blend-mode:luminosity" clip-path="url(#clip1_1232_31601)">
<path d="M58.0261 15.8797L90.1913 71.5914C90.5957 72.2919 90.3554 73.1887 89.6549 73.5931L47.3952 97.9917C46.6947 98.3962 45.7979 98.1559 45.3935 97.4554L13.2283 41.7437C12.8239 41.0431 13.0641 40.1464 13.7647 39.7419L56.0243 15.3433C56.7249 14.9388 57.6216 15.1791 58.0261 15.8797Z" fill="#FAD207"/>
<path d="M18.1418 45.5652L46.4655 94.6232C46.7521 95.1195 47.3866 95.2896 47.8829 95.003L73.4896 80.219C73.8262 80.0247 74.0718 79.7045 74.1724 79.3292L78.3062 63.9015L54.9334 23.4185L20.2786 43.4264L19.1729 42.0054L18.0971 44.1835C17.8801 44.6227 17.897 45.1411 18.1418 45.5652Z" fill="#FAA515"/>
<path d="M56.4171 21.8852L79.0573 61.0991L73.0548 68.2872L74.7663 77.1131L49.0044 91.9868C48.3035 92.3914 47.4073 92.1513 47.0027 91.4504L19.2337 43.353C18.829 42.6521 19.0691 41.756 19.77 41.3513L54.4154 21.3488C55.1163 20.9441 56.0124 21.1843 56.4171 21.8852Z" fill="#F5F5F5"/>
<path d="M79.0573 61.0989L74.7663 77.1129L69.6375 68.2295C69.2328 67.5286 69.4729 66.6324 70.1738 66.2278L79.0573 61.0989Z" fill="#E6E6E6"/>
<path d="M49.8644 23.976L51.2881 26.4418C52.2977 28.1906 51.6959 30.4365 49.9471 31.4462L30.7488 42.5303C29 43.54 26.7541 42.9382 25.7444 41.1894L24.3208 38.7236L49.8644 23.976Z" fill="#E6E6E6"/>
<path d="M22.1228 34.9165L47.6664 20.1689L49.8645 23.9761L24.3209 38.7237L22.1228 34.9165Z" fill="#FAA515"/>
<path d="M45.761 21.2656L49.384 27.5407C49.7887 28.2416 49.5485 29.1378 48.8476 29.5425L29.6498 40.6263C28.9489 41.031 28.0527 40.7909 27.648 40.09L24.0251 33.8149L31.0694 29.748C30.7434 29.3997 30.4655 28.9919 30.2524 28.5291C29.3328 26.5313 30.0129 24.1191 31.8374 22.8909C34.0402 21.4081 36.9979 22.1195 38.3029 24.3799C38.4804 24.6873 38.6178 25.0072 38.7167 25.3328L45.761 21.2656Z" fill="#50758D"/>
<path d="M36.9025 53.473C36.6569 53.6147 36.3655 53.6564 36.0894 53.5881L31.089 52.3528C30.4997 52.2073 30.14 51.6115 30.2856 51.0223C30.4313 50.4332 31.0271 50.0734 31.6161 50.219L35.502 51.1791L36.8523 44.4686C36.972 43.8738 37.5514 43.4881 38.1466 43.6079C38.7415 43.7278 39.127 44.3073 39.0073 44.9023L37.4304 52.7382C37.3712 53.0321 37.1946 53.2891 36.9414 53.4495C36.9286 53.4575 36.9155 53.4654 36.9025 53.473Z" fill="#5ED297"/>
<path d="M57.2448 38.2658L43.7928 46.0323C43.267 46.3358 42.595 46.1558 42.2915 45.63C41.9879 45.1042 42.168 44.4323 42.6937 44.1287L56.1458 36.3622C56.6715 36.0586 57.3435 36.2387 57.6471 36.7644C57.9506 37.2902 57.7706 37.9622 57.2448 38.2658Z" fill="#50758D"/>
<path d="M43.367 64.6701C43.1214 64.8119 42.8301 64.8536 42.5539 64.7853L37.5535 63.55C36.9642 63.4044 36.6045 62.8087 36.7502 62.2195C36.8957 61.6302 37.4916 61.2705 38.0807 61.4162L41.9688 62.3767L43.3315 55.6725C43.4523 55.0777 44.0325 54.6935 44.6275 54.8145C45.2224 54.9353 45.6066 55.5155 45.4856 56.1105L43.8945 63.9373C43.8348 64.2307 43.6581 64.487 43.405 64.6472C43.3925 64.6551 43.3797 64.6628 43.367 64.6701Z" fill="#5ED297"/>
<path d="M63.6828 49.4166L50.2308 57.1832C49.705 57.4867 49.033 57.3067 48.7295 56.7809C48.4259 56.2551 48.606 55.5831 49.1317 55.2796L62.5838 47.5131C63.1095 47.2095 63.7815 47.3896 64.0851 47.9153C64.3886 48.4411 64.2086 49.1131 63.6828 49.4166Z" fill="#50758D"/>
<path d="M70.3598 60.9815L68.139 62.2637C67.6132 62.5673 66.9412 62.3872 66.6377 61.8615C66.3341 61.3357 66.5142 60.6637 67.0399 60.3601L69.2608 59.0779C69.7866 58.7744 70.4585 58.9544 70.7621 59.4802C71.0657 60.006 70.8856 60.678 70.3598 60.9815Z" fill="#50758D"/>
<path d="M63.6972 64.8282L56.9078 68.7481C56.382 69.0517 55.71 68.8716 55.4065 68.3458C55.1029 67.8201 55.283 67.1481 55.8087 66.8445L62.5982 62.9246C63.124 62.6211 63.796 62.8011 64.0995 63.3269C64.4031 63.8527 64.223 64.5247 63.6972 64.8282Z" fill="#50758D"/>
<path d="M53.6437 74.5245L47.806 77.8949C47.2802 78.1984 46.6082 78.0184 46.3047 77.4926L42.9343 71.6549C42.6307 71.1291 42.8108 70.4572 43.3366 70.1536L49.1742 66.7832C49.7 66.4797 50.372 66.6597 50.6755 67.1855L54.0459 73.0232C54.3494 73.5488 54.1694 74.2209 53.6437 74.5245ZM47.6587 75.4418L51.5928 73.1704L49.3215 69.2363L45.3874 71.5077L47.6587 75.4418Z" fill="#FD646F"/>
</g>
<g style="mix-blend-mode:luminosity" clip-path="url(#clip2_1232_31601)">
<path d="M124.996 7.03374V71.3641C124.996 72.173 124.339 72.8295 123.53 72.8295H74.7332C73.9243 72.8295 73.2678 72.173 73.2678 71.3641V7.03374C73.2678 6.22485 73.9243 5.56836 74.7332 5.56836H123.53C124.339 5.56836 124.996 6.22485 124.996 7.03374Z" fill="#FAD207"/>
<path d="M75.6125 12.7998V69.4471C75.6125 70.0202 76.0771 70.4847 76.6502 70.4847H106.218C106.607 70.4847 106.98 70.3303 107.254 70.0555L118.548 58.7617V12.0159H78.5325L78.2854 10.2324L76.2646 11.5809C75.8571 11.8527 75.6125 12.31 75.6125 12.7998Z" fill="#FAA515"/>
<path d="M120.6 11.4297V56.7101L111.807 59.9339L108.877 68.4332H79.1294C78.3201 68.4332 77.6641 67.7771 77.6641 66.9678V11.4297C77.6641 10.6204 78.3201 9.96436 79.1294 9.96436H119.134C119.944 9.96436 120.6 10.6204 120.6 11.4297Z" fill="#F5F5F5"/>
<path d="M120.6 56.7104L108.877 68.4335V58.1758C108.877 57.3665 109.533 56.7104 110.342 56.7104H120.6Z" fill="#E6E6E6"/>
<path d="M113.88 9.96436V12.8116C113.88 14.8309 112.235 16.4751 110.216 16.4751H88.0477C86.0284 16.4751 84.3843 14.8309 84.3843 12.8116V9.96436H113.88Z" fill="#E6E6E6"/>
<path d="M84.3843 5.56836H113.88V9.96451H84.3843V5.56836Z" fill="#FAA515"/>
<path d="M111.681 5.56535V12.8112C111.681 13.6206 111.025 14.2766 110.216 14.2766H88.0479C87.2386 14.2766 86.5825 13.6206 86.5825 12.8112V5.56535L94.7164 5.5655C94.6083 5.10083 94.5715 4.60875 94.6184 4.10144C94.8209 1.91142 96.616 0.162486 98.8101 0.0111119C101.459 -0.171621 103.665 1.92329 103.665 4.53329C103.665 4.88835 103.624 5.23403 103.547 5.5655L111.681 5.56535Z" fill="#50758D"/>
<path d="M87.9056 29.0287C87.6221 29.0287 87.3489 28.9191 87.1439 28.7218L83.4311 25.1518C82.9935 24.7311 82.9799 24.0354 83.4006 23.5979C83.8213 23.1605 84.5172 23.1469 84.9545 23.5675L87.8397 26.3419L92.3643 21.2056C92.7654 20.7503 93.46 20.706 93.9156 21.1074C94.3709 21.5086 94.415 22.2032 94.0138 22.6586L88.7302 28.6563C88.5319 28.8812 88.2506 29.0155 87.951 29.0278C87.9359 29.0284 87.9207 29.0287 87.9056 29.0287Z" fill="#5ED297"/>
<path d="M113.126 26.0296H97.5932C96.9861 26.0296 96.4941 25.5377 96.4941 24.9306C96.4941 24.3235 96.9861 23.8315 97.5932 23.8315H113.126C113.733 23.8315 114.225 24.3235 114.225 24.9306C114.225 25.5377 113.733 26.0296 113.126 26.0296Z" fill="#50758D"/>
<path d="M87.9056 41.9577C87.6221 41.9577 87.3489 41.8481 87.1439 41.6509L83.4311 38.0809C82.9935 37.6602 82.9799 36.9645 83.4006 36.527C83.8213 36.0895 84.5172 36.0758 84.9545 36.4966L87.8414 39.2724L92.3737 34.1478C92.7757 33.6931 93.4703 33.6505 93.9251 34.0527C94.3798 34.4548 94.4225 35.1494 94.0202 35.6041L88.7289 41.5869C88.5304 41.8111 88.2492 41.9447 87.95 41.9569C87.9352 41.9575 87.9203 41.9577 87.9056 41.9577Z" fill="#5ED297"/>
<path d="M113.126 38.9061H97.5932C96.9861 38.9061 96.4941 38.4142 96.4941 37.807C96.4941 37.1999 96.9861 36.708 97.5932 36.708H113.126C113.733 36.708 114.225 37.1999 114.225 37.807C114.225 38.4142 113.733 38.9061 113.126 38.9061Z" fill="#50758D"/>
<path d="M113.126 52.2601H110.562C109.955 52.2601 109.463 51.7682 109.463 51.161C109.463 50.5539 109.955 50.062 110.562 50.062H113.126C113.733 50.062 114.225 50.5539 114.225 51.161C114.225 51.7682 113.733 52.2601 113.126 52.2601Z" fill="#50758D"/>
<path d="M105.433 52.2601H97.5932C96.9861 52.2601 96.4941 51.7682 96.4941 51.161C96.4941 50.5539 96.9861 50.062 97.5932 50.062H105.433C106.04 50.062 106.532 50.5539 106.532 51.161C106.532 51.7682 106.04 52.2601 105.433 52.2601Z" fill="#50758D"/>
<path d="M91.8781 55.6302H85.1374C84.5303 55.6302 84.0383 55.1383 84.0383 54.5312V47.7904C84.0383 47.1833 84.5303 46.6914 85.1374 46.6914H91.8781C92.4852 46.6914 92.9772 47.1833 92.9772 47.7904V54.5312C92.9772 55.1382 92.4852 55.6302 91.8781 55.6302ZM86.2364 53.4322H90.7791V48.8895H86.2364V53.4322Z" fill="#FD646F"/>
</g>
<defs>
<clipPath id="clip0_1232_31601">
<rect width="72.8296" height="72.8296" fill="white" transform="translate(128.354 3.37695) rotate(30)"/>
</clipPath>
<clipPath id="clip1_1232_31601">
<rect width="72.8296" height="72.8296" fill="white" transform="translate(0.574219 40.9277) rotate(-30)"/>
</clipPath>
<clipPath id="clip2_1232_31601">
<rect width="72.8296" height="72.8296" fill="white" transform="translate(62.717)"/>
</clipPath>
</defs>
</svg>
