<svg id="Layer_3" data-name="Layer 3" xmlns="http://www.w3.org/2000/svg" viewBox="0 0 96 96"
  fill="currentColor">
  <defs>
    <style>
      .cls-1,.cls-2,.cls-3{fill:none;stroke:#fff;strokeWidth:6px;}.cls-1{stroke-miterlimit:10;}.cls-2,.cls-3{stroke-linejoin:round;}.cls-3{strokeLinecap:square;}</style>
  </defs>
  <circle class="cls-1" cx="40.73" cy="50.9" r="9.98" />
  <path class="cls-1"
    d="M24.09,82.42A14.22,14.22,0,0,1,38.31,68.2h4.76A14.21,14.21,0,0,1,57.28,82.42" />
  <path class="cls-1" d="M51.23,41.65a10,10,0,0,1,14,9.13,10,10,0,0,1-14,9.12" />
  <path class="cls-1" d="M54.42,68.07H57.6A14.22,14.22,0,0,1,71.81,82.29" />
  <path class="cls-1" d="M48.06,57.67A10,10,0,0,0,47.93,44" />
  <path class="cls-1" d="M47.78,69a14.22,14.22,0,0,1,9.5,13.42" />
  <line class="cls-2" x1="15.71" y1="43.07" x2="15.71" y2="28.07" />
  <polyline class="cls-2" points="80.71 43.07 80.71 83.07 15.71 83.07 15.71 43.07" />
  <polyline class="cls-3" points="9.33 49.47 47.87 11.07 86.42 49.47" />
</svg>