<?xml version="1.0" encoding="utf-8"?>
<!-- Svg Vector Icons : http://www.onlinewebfonts.com/icon -->
<!DOCTYPE svg PUBLIC "-//W3C//DTD SVG 1.1//EN" "http://www.w3.org/Graphics/SVG/1.1/DTD/svg11.dtd">
<svg version="1.1" xmlns="http://www.w3.org/2000/svg" xmlns:xlink="http://www.w3.org/1999/xlink" x="0px" y="0px" viewBox="0 0 256 256" enable-background="new 0 0 256 256" xml:space="preserve">
<metadata> Svg Vector Icons : http://www.onlinewebfonts.com/icon </metadata>
<g><g><path fill="#000000" d="M128,69C62.8,69,10,121.8,10,187h33.8c0-40.6,28.8-74.5,67-82.5l-5.1-31.6l8.3,31c4.6-0.7,9.2-1.2,13.9-1.2c46.5,0,84.2,37.7,84.2,84.2H246C246,121.8,193.2,69,128,69z"/><path fill="#000000" d="M122.6,177.7c0,0,0,0.1,0,0.1c0.6,3,3.5,4.8,6.5,4.2c3-0.6,4.8-3.5,4.2-6.5c0-0.2-0.1-0.4-0.2-0.7l-18.5-68.7c-1.1,0.2-2.2,0.4-3.2,0.6L122.6,177.7L122.6,177.7z"/><path fill="#000000" d="M131.9,166.8l1,3.6c1.8,1.4,3,3.6,3,6.1c0,1-0.2,2-0.6,2.9c-1.2,2.9-4,5-7.3,5c-2.3,0-4.3-1-5.7-2.5c-1.3-1.4-2.1-3.3-2.1-5.4c0-1.2,0.3-2.3,0.7-3.3l-0.6-3.8c-1.7,1.9-2.8,4.3-2.8,7.1c0,3.9,2.2,7.3,5.4,9.1c1.5,0.9,3.3,1.4,5.1,1.4c3.4,0,6.3-1.6,8.3-4.1c1.4-1.8,2.2-4,2.2-6.4C138.5,172.1,135.8,168.3,131.9,166.8z"/></g></g>
</svg>