<svg id="Layer_1" data-name="Layer 1" xmlns="http://www.w3.org/2000/svg" viewBox="0 0 345.35 105.8" fill="currentColor"><defs><style>.cls-1{fill:#1c3e8e;}</style></defs><path class="cls-1" d="M26.13,72.42a21.18,21.18,0,0,1-8.44-7.88,21.77,21.77,0,0,1-3-11.44,21.77,21.77,0,0,1,3-11.44,21.11,21.11,0,0,1,8.44-7.88,25.86,25.86,0,0,1,12.2-2.84,25.61,25.61,0,0,1,12.16,2.84,21.2,21.2,0,0,1,8.4,7.88,21.77,21.77,0,0,1,3,11.44,21.77,21.77,0,0,1-3,11.44,21.27,21.27,0,0,1-8.4,7.88,25.61,25.61,0,0,1-12.16,2.84A25.86,25.86,0,0,1,26.13,72.42ZM46.21,61.78a12.1,12.1,0,0,0,3.08-8.68,12.09,12.09,0,0,0-3.08-8.68,10.39,10.39,0,0,0-7.88-3.24,10.52,10.52,0,0,0-7.92,3.24,12,12,0,0,0-3.12,8.68,12,12,0,0,0,3.12,8.68A10.52,10.52,0,0,0,38.33,65,10.39,10.39,0,0,0,46.21,61.78Z"/><path class="cls-1" d="M138.16,31.58l-15.6,43h-12L100.88,47.9l-10,26.72h-12l-15.52-43H75.13L85.29,60.7,95.84,31.58H106.4L116.64,60.7l10.48-29.12Z"/><path class="cls-1" d="M183.07,35.74Q188,40.54,188,50V74.62H175.51V51.9c0-3.41-.74-6-2.24-7.64a8.2,8.2,0,0,0-6.47-2.52,9.9,9.9,0,0,0-7.52,2.92q-2.81,2.93-2.8,8.68V74.62H144v-43h11.92v5a16.55,16.55,0,0,1,6.16-4.2,21.35,21.35,0,0,1,8.07-1.48Q178.16,30.94,183.07,35.74Z"/><path class="cls-1" d="M217,53.5l-9.92,9.12v12h-5.68V15.26h5.68V55.5l25.12-23h7l-18,17.2,19.67,24.88H234Z"/><path class="cls-1" d="M284.46,55.34h-35.2a15.06,15.06,0,0,0,5,10.6,16.75,16.75,0,0,0,11.52,4,18.23,18.23,0,0,0,7.2-1.4,15.82,15.82,0,0,0,5.68-4.12l3.2,3.68a18.11,18.11,0,0,1-7,5.12A23.73,23.73,0,0,1,265.66,75a23.38,23.38,0,0,1-11.48-2.76,20,20,0,0,1-7.8-7.64,21.88,21.88,0,0,1-2.8-11,22.61,22.61,0,0,1,2.68-11,19.43,19.43,0,0,1,7.36-7.6,20.59,20.59,0,0,1,10.52-2.72,20.37,20.37,0,0,1,10.48,2.72,19.26,19.26,0,0,1,7.28,7.56,22.77,22.77,0,0,1,2.64,11.08ZM253.94,41a15.31,15.31,0,0,0-4.68,10.12H279.1A15.22,15.22,0,0,0,274.42,41a15.45,15.45,0,0,0-20.48,0Z"/><path class="cls-1" d="M330.69,32.54l-21,47.11q-2.57,5.92-5.92,8.4a13.2,13.2,0,0,1-8.08,2.48,16.48,16.48,0,0,1-5.68-1,12.31,12.31,0,0,1-4.56-2.88l2.64-4.24a10.44,10.44,0,0,0,7.68,3.2,7.71,7.71,0,0,0,4.92-1.6,14.54,14.54,0,0,0,3.8-5.44l1.84-4.07-18.8-42h5.92L309.26,68.3l15.83-35.76Z"/></svg>