<svg id="Layer_1" data-name="Layer 1" xmlns="http://www.w3.org/2000/svg" viewBox="0 0 500 500"
  fill="currentColor">
  <defs>
    <style>
      .cls-1{fill:#022e72;}.cls-2{fill:none;stroke:#022e72;strokeLinecap:round;stroke-linejoin:round;strokeWidth:10px;}</style>
  </defs>
  <path class="cls-1"
    d="M213.58,289.37a61.86,61.86,0,0,1,23.54,23.18,68.85,68.85,0,0,1,0,66.93,62.38,62.38,0,0,1-23.63,23.26,68,68,0,0,1-65.5,0,63,63,0,0,1-23.71-23.26,68.23,68.23,0,0,1,0-66.93A62.3,62.3,0,0,1,148,289.37a68.79,68.79,0,0,1,65.59,0Zm-51.18,36Q156,332.95,156,346q0,12.89,6.44,20.49t18.43,7.61q11.82,0,18.26-7.61T205.53,346q0-13.06-6.44-20.67t-18.26-7.61Q168.85,317.73,162.4,325.34Z" />
  <path class="cls-1"
    d="M337.6,344.76l46.89,65.14H336.71L299.84,355V409.9H260.11V283.2h39.73v53.5l37.22-53.5h47.43Z" />
  <polygon class="cls-2"
    points="34.42 275.22 34.42 493.18 465.58 493.18 465.58 275.22 250 59.64 34.42 275.22" />
</svg>