<?xml version="1.0" encoding="UTF-8"?>
<svg id="Layer_1" data-name="Layer 1" xmlns="http://www.w3.org/2000/svg" viewBox="0 0 1193.41 259.29">
  <defs>
    <style>
      .cls-1 {
        fill: #fff;
      }

      .cls-2 {
        fill: #022e72;
      }

      .cls-3 {
        fill: #c92251;
      }
    </style>
  </defs>
  <polygon class="cls-3" points="210.74 106.57 106.53 2.47 2.44 106.57 2.44 211.93 210.74 211.93 210.74 106.57"/>
  <path class="cls-3" d="m210.74,214.37H2.44c-1.28,0-2.44-1.03-2.44-2.44h0v-105.37c0-.64.26-1.28.77-1.67L104.99.67c.9-.9,2.44-.9,3.46,0h0l104.22,104.22c.51.51.77,1.03.64,1.67v105.24c-.13,1.41-1.15,2.44-2.56,2.56h-.01Zm-205.87-4.85h203.43v-101.91L106.52,5.82,4.74,107.6v101.91h.13Z"/>
  <path class="cls-1" d="m88.97,113.48c4.74,2.56,8.72,6.54,11.41,11.15,5.64,10,5.64,22.3,0,32.3-2.69,4.74-6.67,8.59-11.41,11.28-9.87,5.38-21.79,5.38-31.66,0-4.74-2.69-8.72-6.54-11.41-11.28-5.64-10-5.64-22.3,0-32.3,2.69-4.74,6.67-8.59,11.41-11.15,9.87-5.38,21.79-5.38,31.66,0Zm-24.74,17.31c-4.1,6.02-4.1,13.97,0,19.87,2.31,2.56,5.64,3.85,8.97,3.72,3.33.26,6.54-1.15,8.84-3.72,4.1-6.02,4.1-13.97,0-19.87-2.18-2.56-5.51-3.85-8.84-3.72-3.33-.13-6.67,1.15-8.97,3.72Z"/>
  <path class="cls-1" d="m148.83,140.15l22.69,31.53h-23.07l-17.82-26.53v26.53h-19.23v-61.27h19.23v25.89l17.95-25.89h22.95l-22.69,29.74h0Z"/>
  <g>
    <path class="cls-2" d="m873.01,154.87l-27.9,25.7v33.8h-16.1V47.08h16.1v113.4l70.8-64.8h19.7l-50.7,48.5,55.5,70.1h-19.7l-47.7-59.4h0Z"/>
    <path class="cls-2" d="m1063.11,160.07h-99.2c.5,11.5,5.5,22.2,14.1,29.9,9,7.7,20.6,11.7,32.5,11.3,7,.1,13.9-1.3,20.3-3.9,6.2-2.6,11.6-6.6,16-11.6l9,10.4c-5.3,6.3-12.1,11.3-19.7,14.4-19,7.5-40.3,6.5-58.4-2.8-9.2-5-16.8-12.5-22-21.5-5.3-9.5-8-20.2-7.9-31-.2-10.8,2.4-21.5,7.5-31,4.8-8.9,12-16.4,20.8-21.4,9-5.2,19.3-7.9,29.7-7.8,10.4-.2,20.6,2.5,29.5,7.7,8.7,5.1,15.8,12.4,20.5,21.3,5.1,9.6,7.7,20.3,7.4,31.2l-.1,4.8h0Zm-86.1-40.4c-7.8,7.5-12.5,17.7-13.2,28.5h84.2c-.7-10.8-5.4-21-13.3-28.5-16.4-14.6-41.2-14.6-57.7,0Z"/>
    <path class="cls-2" d="m1193.41,95.78l-59.2,132.8c-4.8,11.1-10.4,19-16.7,23.7-6.6,4.8-14.6,7.2-22.8,7-5.5,0-10.9-.9-16-2.8-4.8-1.7-9.2-4.5-12.9-8.1l7.4-12c5.7,5.9,13.5,9.1,21.7,9,5,.1,9.9-1.5,13.9-4.5,4.7-4.2,8.4-9.5,10.7-15.3l5.2-11.5-53-118.4h16.7l44.7,100.8,44.7-100.7h15.6Z"/>
  </g>
  <g>
    <path class="cls-2" d="m258.01,135.65c0-46.8,36.45-81.45,86.18-81.45s86.18,34.43,86.18,81.45-36.68,81.45-86.18,81.45-86.18-34.65-86.18-81.45h0Zm135.45,0c0-29.93-21.15-50.4-49.28-50.4s-49.28,20.48-49.28,50.4,21.15,50.4,49.28,50.4,49.28-20.48,49.28-50.4h0Z"/>
    <path class="cls-2" d="m650.36,93.33l-43.88,121.05h-33.75l-27.23-75.15-28.13,75.15h-33.75l-43.65-121.05h33.08l28.58,81.9,29.7-81.9h29.7l28.8,81.9,29.48-81.9h31.05Z"/>
    <path class="cls-2" d="m791.01,145.09v69.3h-35.1v-63.9c0-19.58-9-28.58-24.53-28.58-16.88,0-29.03,10.35-29.03,32.63v59.85h-35.1v-121.05h33.53v14.18c9.45-10.35,23.63-15.98,40.05-15.98,28.58,0,50.18,16.65,50.18,53.55h0Z"/>
  </g>
</svg>