<svg id="Layer_1" data-name="Layer 1" xmlns="http://www.w3.org/2000/svg" viewBox="0 0 500 500">
  <defs>
    <style>
      .cls-1{fill:#022e72;stroke:#022e72;strokeLinecap:round;stroke-linejoin:round;strokeWidth:10px;}.cls-2{fill:#fff;}</style>
  </defs>
  <polygon class="cls-1"
    points="465.54 275.22 249.96 59.64 34.39 275.22 34.39 493.18 465.54 493.18 465.54 275.22" />
  <path class="cls-2"
    d="M213.55,289.37a61.83,61.83,0,0,1,23.53,23.18,68.85,68.85,0,0,1,0,66.93,62.35,62.35,0,0,1-23.62,23.26,68,68,0,0,1-65.5,0,62.94,62.94,0,0,1-23.71-23.26,68.23,68.23,0,0,1,0-66.93A62.23,62.23,0,0,1,148,289.37a68.79,68.79,0,0,1,65.59,0Zm-51.18,36q-6.45,7.61-6.45,20.67,0,12.89,6.45,20.49t18.43,7.61q11.8,0,18.25-7.61T205.5,346q0-13.06-6.45-20.67t-18.25-7.61Q168.8,317.73,162.37,325.34Z" />
  <path class="cls-2"
    d="M337.57,344.76l46.88,65.14H336.67L299.81,355V409.9H260.08V283.2h39.73v53.5L337,283.2h47.42Z" />
</svg>