<?xml version="1.0" encoding="utf-8"?>
<!-- Generator: Adobe Illustrator 27.1.1, SVG Export Plug-In . SVG Version: 6.00 Build 0)  -->
<svg version="1.1" id="Layer_1" xmlns="http://www.w3.org/2000/svg" xmlns:xlink="http://www.w3.org/1999/xlink" x="0px" y="0px"
	 viewBox="0 0 1193.4 259.3" style="enable-background:new 0 0 1193.4 259.3;" xml:space="preserve">
<style type="text/css">
	.st0{fill:#C92251;}
	.st1{fill:#FFFFFF;}
</style>
<polygon class="st0" points="210.7,106.6 106.5,2.5 2.4,106.6 2.4,211.9 210.7,211.9 "/>
<path class="st0" d="M210.7,214.4H2.4c-1.3,0-2.4-1-2.4-2.4l0,0V106.6c0-0.6,0.3-1.3,0.8-1.7L105,0.7c0.9-0.9,2.4-0.9,3.5,0l0,0
	l104.2,104.2c0.5,0.5,0.8,1,0.6,1.7v105.2C213.2,213.2,212.2,214.2,210.7,214.4L210.7,214.4L210.7,214.4z M4.9,209.5h203.4V107.6
	L106.5,5.8L4.7,107.6v101.9L4.9,209.5L4.9,209.5z"/>
<path class="st1" d="M89,113.5c4.7,2.6,8.7,6.5,11.4,11.2c5.6,10,5.6,22.3,0,32.3c-2.7,4.7-6.7,8.6-11.4,11.3
	c-9.9,5.4-21.8,5.4-31.7,0c-4.7-2.7-8.7-6.5-11.4-11.3c-5.6-10-5.6-22.3,0-32.3c2.7-4.7,6.7-8.6,11.4-11.2
	C67.2,108.1,79.1,108.1,89,113.5z M64.2,130.8c-4.1,6-4.1,14,0,19.9c2.3,2.6,5.6,3.9,9,3.7c3.3,0.3,6.5-1.1,8.8-3.7
	c4.1-6,4.1-14,0-19.9c-2.2-2.6-5.5-3.8-8.8-3.7C69.9,126.9,66.5,128.2,64.2,130.8z"/>
<path class="st1" d="M148.8,140.1l22.7,31.5h-23.1l-17.8-26.5v26.5h-19.2v-61.3h19.2v25.9l17.9-25.9h22.9L148.8,140.1L148.8,140.1
	L148.8,140.1z"/>
<g>
	<path d="M873,154.9l-27.9,25.7v33.8H829V47.1h16.1v113.4l70.8-64.8h19.7l-50.7,48.5l55.5,70.1h-19.7L873,154.9L873,154.9L873,154.9
		z"/>
	<path d="M1063.1,160.1h-99.2c0.5,11.5,5.5,22.2,14.1,29.9c9,7.7,20.6,11.7,32.5,11.3c7,0.1,13.9-1.3,20.3-3.9
		c6.2-2.6,11.6-6.6,16-11.6l9,10.4c-5.3,6.3-12.1,11.3-19.7,14.4c-19,7.5-40.3,6.5-58.4-2.8c-9.2-5-16.8-12.5-22-21.5
		c-5.3-9.5-8-20.2-7.9-31c-0.2-10.8,2.4-21.5,7.5-31c4.8-8.9,12-16.4,20.8-21.4c9-5.2,19.3-7.9,29.7-7.8c10.4-0.2,20.6,2.5,29.5,7.7
		c8.7,5.1,15.8,12.4,20.5,21.3c5.1,9.6,7.7,20.3,7.4,31.2L1063.1,160.1L1063.1,160.1L1063.1,160.1z M977,119.7
		c-7.8,7.5-12.5,17.7-13.2,28.5h84.2c-0.7-10.8-5.4-21-13.3-28.5C1018.3,105.1,993.5,105.1,977,119.7L977,119.7z"/>
	<path d="M1193.4,95.8l-59.2,132.8c-4.8,11.1-10.4,19-16.7,23.7c-6.6,4.8-14.6,7.2-22.8,7c-5.5,0-10.9-0.9-16-2.8
		c-4.8-1.7-9.2-4.5-12.9-8.1l7.4-12c5.7,5.9,13.5,9.1,21.7,9c5,0.1,9.9-1.5,13.9-4.5c4.7-4.2,8.4-9.5,10.7-15.3l5.2-11.5l-53-118.4
		h16.7l44.7,100.8l44.7-100.7L1193.4,95.8L1193.4,95.8z"/>
</g>
<g>
	<path d="M258,135.6c0-46.8,36.5-81.4,86.2-81.4s86.2,34.4,86.2,81.4s-36.7,81.4-86.2,81.4S258,182.4,258,135.6L258,135.6z
		 M393.5,135.6c0-29.9-21.1-50.4-49.3-50.4s-49.3,20.5-49.3,50.4s21.1,50.4,49.3,50.4S393.5,165.6,393.5,135.6L393.5,135.6z"/>
	<path d="M650.4,93.3l-43.9,121.1h-33.8l-27.2-75.1l-28.1,75.1h-33.8L440,93.3H473l28.6,81.9l29.7-81.9H561l28.8,81.9l29.5-81.9
		L650.4,93.3L650.4,93.3z"/>
	<path d="M791,145.1v69.3h-35.1v-63.9c0-19.6-9-28.6-24.5-28.6c-16.9,0-29,10.4-29,32.6v59.8h-35.1V93.3h33.5v14.2
		c9.5-10.3,23.6-16,40-16C769.4,91.5,791,108.2,791,145.1L791,145.1L791,145.1z"/>
</g>
</svg>
