<?xml version="1.0" encoding="UTF-8"?>
<svg xmlns="http://www.w3.org/2000/svg" viewBox="0 0 484 484">
  <defs>
    <style>
      .cls-1 {
      stroke: #b22b4b;
      }

      .cls-1, .cls-2, .cls-3, .cls-4 {
      fill: none;
      stroke-linejoin: round;
      strokeWidth: 10px;
      }

      .cls-2, .cls-3 {
      stroke: #004b96;
      }

      .cls-5 {
      fill: #00326f;
      }

      .cls-3, .cls-4 {
      strokeLinecap: round;
      }

      .cls-4 {
      stroke: #000;
      }

      .cls-6 {
      stroke: #606060;
      stroke-miterlimit: 10;
      }

      .cls-6, .cls-7 {
      fill: #dd3052;
      }
    </style>
  </defs>
  <g id="Layer_1" data-name="Layer 1">
    <path class="cls-5"
      d="m262.24,304.99l-11.13,5.41c-1.33.64-2.87.64-4.2,0l-11.13-5.41c-1.65-.8-2.7-2.48-2.7-4.32v-84.95h31.86v84.95c0,1.84-1.05,3.52-2.7,4.32Z" />
    <path class="cls-5"
      d="m235.77,372.62l-59.49-21.45c-11.38-3.01-23.22,2.43-28.09,12.51-5.32,11.03-1.03,24.99,10.21,31.4,53.95,19.35,107.89,38.71,161.84,58.06,5.81,2.09,12.16,2.17,18.03.25l30.63-10.04c4.07-1.33,8.47-1.32,12.53.05l10.85,3.65,33.7-91.91-52.8-19.27c-5.05-1.85-10.51-2.33-15.8-1.39l-102.21,17.98c-11.03,2.88-18.68,12.26-18.89,22.21-.26,12.46,11.18,24.25,26.04,24,30.62-5.57,61.23-11.15,91.85-16.72" />
    <rect class="cls-5" x="408.13" y="344.38" width="47.55" height="127.32" rx="6.15" ry="6.15"
      transform="translate(166.59 -123.61) rotate(20.11)" />
    <rect class="cls-6" x="10.49" y="8.45" width="62.64" height="127.4" rx="5.19" ry="5.19" />
    <path class="cls-7"
      d="m264.95,88.99c9.82,10.07,19.64,20.13,29.45,30.2,10.59,12.37,28.76,11.79,37.11,2.04,7.03-8.2,6.76-22.51-2.38-32.24l-64.08-64.61c-10.26-10.35-24.23-16.17-38.8-16.17h-80.61l-54,23.01c-2.33.99-4.84,1.5-7.37,1.5h-11.14v79.32h7.4c3.79,0,7.23,2.1,9.1,5.39,10.92,19.14,31.74,30.36,52.94,28.31,18.1-1.75,34.17-12.96,42.88-29.39,1.4-2.65,4.15-4.31,7.14-4.31h49.04c12.28,0,22.75-9.49,23.29-21.75.02-.43.03-.86.02-1.3,0-.42-.02-.83-.04-1.24-.74-12.09-11.15-21.32-23.25-21.32h-88.27" />
    <path class="cls-5"
      d="m248.67,135.85c-22.46,0-36.91,12.97-39.95,15.83v50.52c0,7.47,6.06,13.53,13.53,13.53h52.83c7.47,0,13.53-6.06,13.53-13.53v-50.52c-3.04-2.86-17.49-15.83-39.95-15.83Zm.74,48.18c-8.89,0-16.09-7.21-16.09-16.09s7.21-16.09,16.09-16.09,16.09,7.21,16.09,16.09-7.21,16.09-16.09,16.09Z" />
  </g>
  <g id="Layer_2" data-name="Layer 2">
    <path class="cls-1"
      d="m73.13,31.26h11.14c2.53,0,5.04-.51,7.37-1.5l54-23.01h80.61c14.57,0,28.54,5.82,38.8,16.17l64.08,64.61c9.15,9.73,9.41,24.04,2.38,32.24-8.35,9.74-26.52,10.32-37.11-2.04-9.82-10.07-19.64-20.13-29.45-30.2" />
    <path class="cls-4"
      d="m218.01,64.96c8.82-5.76,19.36-9.11,30.69-9.11,31.07,0,56.26,25.19,56.26,56.26,0,4.31-.49,8.51-1.41,12.54-2.38,10.43-7.65,19.76-14.93,27.09" />
    <path class="cls-2"
      d="m275.09,215.72h-52.83c-7.47,0-13.53-6.06-13.53-13.53v-50.52c3.04-2.86,17.49-15.83,39.95-15.83s36.91,12.97,39.95,15.83v50.52c0,7.47-6.06,13.53-13.53,13.53Z" />
    <path class="cls-2"
      d="m262.24,304.99l-11.13,5.41c-1.33.64-2.87.64-4.2,0l-11.13-5.41c-1.65-.8-2.7-2.48-2.7-4.32v-84.95h31.86v84.95c0,1.84-1.05,3.52-2.7,4.32Z" />
    <path class="cls-3"
      d="m235.77,372.62l-59.49-21.45c-11.38-3.01-23.22,2.43-28.09,12.51-5.32,11.03-1.03,24.99,10.21,31.4,53.95,19.35,107.89,38.71,161.84,58.06,5.81,2.09,12.16,2.17,18.03.25l30.63-10.04c4.07-1.33,8.47-1.32,12.53.05l10.85,3.65,33.7-91.91-52.8-19.27c-5.05-1.85-10.51-2.33-15.8-1.39l-102.21,17.98c-11.03,2.88-18.68,12.26-18.89,22.21-.26,12.46,11.18,24.25,26.04,24,30.62-5.57,61.23-11.15,91.85-16.72" />
    <rect class="cls-3" x="408.13" y="344.38" width="47.55" height="127.32" rx="6.15" ry="6.15"
      transform="translate(166.59 -123.61) rotate(20.11)" />
    <rect class="cls-1" x="10.49" y="8.45" width="62.64" height="127.4" rx="5.19" ry="5.19" />
    <circle class="cls-2" cx="249.41" cy="167.93" r="16.09" />
    <path class="cls-4"
      d="m248.7,168.36c-5.31,0-10.44-.73-15.3-2.1-9.48-2.68-17.94-7.77-24.68-14.58-10.06-10.16-16.27-24.15-16.27-39.57,0-.52.01-1.03.02-1.54" />
    <path class="cls-1"
      d="m73.13,110.57h7.4c3.79,0,7.23,2.1,9.1,5.39,10.92,19.14,31.74,30.36,52.94,28.31,18.1-1.75,34.17-12.96,42.88-29.39,1.4-2.65,4.15-4.31,7.14-4.31h49.04c12.28,0,22.75-9.49,23.29-21.75.02-.43.03-.86.02-1.3,0-.42-.02-.83-.04-1.24-.74-12.09-11.15-21.32-23.25-21.32h-88.27" />
  </g>
</svg>