<?xml version="1.0" encoding="UTF-8"?>
<svg id="Layer_1" data-name="Layer 1" xmlns="http://www.w3.org/2000/svg" viewBox="0 0 100 100">
  <defs>
    <style>
      .cls-1 {
        fill: none;
        stroke-linejoin: round;
        strokeWidth: 5px;
      }

      .cls-1, .cls-2 {
        stroke: currentColor;
      }

      .cls-2 {
        stroke-miterlimit: 10;
      }
    </style>
  </defs>
  <g>
    <path class="cls-2" d="m34.74,63.44l.9-2.02c1.12.9,2.9,1.54,4.62,1.54,2.18,0,3.1-.78,3.1-1.82,0-3.02-8.32-1.04-8.32-6.24,0-2.26,1.8-4.18,5.64-4.18,1.68,0,3.44.44,4.66,1.24l-.82,2.02c-1.26-.74-2.64-1.1-3.86-1.1-2.16,0-3.04.84-3.04,1.9,0,2.98,8.3,1.04,8.3,6.18,0,2.24-1.82,4.16-5.66,4.16-2.18,0-4.36-.68-5.52-1.68Z"/>
    <path class="cls-2" d="m57.49,61.68h-7l-1.38,3.24h-2.68l6.3-14h2.56l6.32,14h-2.72l-1.4-3.24Zm-.86-2.04l-2.64-6.12-2.62,6.12h5.26Z"/>
    <path class="cls-2" d="m63.33,50.92h2.6v11.8h7.32v2.2h-9.92v-14Z"/>
    <path class="cls-2" d="m85.59,62.74v2.18h-10.5v-14h10.22v2.18h-7.62v3.64h6.76v2.14h-6.76v3.86h7.9Z"/>
  </g>
  <line class="cls-1" x1="9.91" y1="20" x2="90.09" y2="20"/>
  <line class="cls-1" x1="20.09" y1="90" x2="20.09" y2="10"/>
  <rect class="cls-1" x="30.09" y="35" width="60" height="45"/>
  <line class="cls-1" x1="80.09" y1="35" x2="80.09" y2="20"/>
  <line class="cls-1" x1="40.09" y1="35" x2="40.09" y2="20"/>
</svg>