<?xml version="1.0" encoding="UTF-8"?>
<svg id="Layer_1" data-name="Layer 1" xmlns="http://www.w3.org/2000/svg" viewBox="0 0 100 100">
  <defs>
    <style>
      .cls-1 {
        fill: none;
        stroke: currentColor;
        stroke-linejoin: round;
        strokeWidth: 5px;
      }
    </style>
  </defs>
  <path class="cls-1" d="m84.99,21.34c-6.31-6.98-15.51-5.58-17.18-5.33-7.5,1.14-12.28,6.32-13.87,8.04-1.86,2.02-3.12,3.99-3.94,5.43-.83-1.42-2.09-3.36-3.88-5.43-3.21-3.71-8.06-9.29-15.45-9.86-8.98-.69-15.15,6.54-15.64,7.14-5.19,6.29-5.06,13.79-5.02,16.21.12,6.66,2.61,11.52,3.87,13.64,0,0,0,0,0,0,.02.05,7.58,15.23,34.23,34.12,1.01.72,2.31.72,3.33.02,1.16-.8,21.84-13.27,34.75-34.14h0c1.28-2.22,3.68-7.08,3.79-13.64.05-2.84.18-10.48-5-16.21Z"/>
</svg>