<svg width="22" height="22" viewBox="0 0 22 22" fill="none" xmlns="http://www.w3.org/2000/svg">
  <path
    d="M9.61572 2.04418L5.04156 3.75834C3.9874 4.15251 3.12573 5.39917 3.12573 6.52667V13.3375C3.12573 14.4192 3.84074 15.84 4.71158 16.4908L8.65323 19.4333C9.94573 20.405 12.0724 20.405 13.3649 19.4333L17.3066 16.4908C18.1774 15.84 18.8924 14.4192 18.8924 13.3375V6.52667C18.8924 5.39917 18.0307 4.15251 16.9766 3.75834L12.4024 2.04418C11.6232 1.76001 10.3766 1.76001 9.61572 2.04418Z"
    stroke="currentColor" strokeWidth="1.5" strokeLinecap="round" stroke-linejoin="round" />
  <path
    d="M11.0001 10.0099C10.9635 10.0099 10.9176 10.0099 10.881 10.0099C10.0193 9.98239 9.33179 9.26738 9.33179 8.39655C9.33179 7.50738 10.056 6.7832 10.9451 6.7832C11.8343 6.7832 12.5585 7.50738 12.5585 8.39655C12.5493 9.27655 11.8618 9.98239 11.0001 10.0099Z"
    stroke="currentColor" strokeWidth="1.5" strokeLinecap="round" stroke-linejoin="round" />
  <path
    d="M9.17587 12.5761C8.29587 13.1628 8.29587 14.1252 9.17587 14.7119C10.175 15.3811 11.8159 15.3811 12.815 14.7119C13.695 14.1252 13.695 13.1628 12.815 12.5761C11.825 11.9069 10.1842 11.9069 9.17587 12.5761Z"
    stroke="currentColor" strokeWidth="1.5" strokeLinecap="round" stroke-linejoin="round" />
</svg>