<?xml version="1.0" encoding="UTF-8"?>
<svg id="Layer_1" data-name="Layer 1" xmlns="http://www.w3.org/2000/svg" viewBox="0 0 100 100">
  <defs>
    <style>
      .cls-1 {
        fill: none;
        stroke: currentColor;
        stroke-linejoin: round;
        strokeWidth: 5px;
      }
    </style>
  </defs>
  <polyline class="cls-1" points="82.5 55 82.5 89.95 12.5 89.95 12.5 19.95 30.06 19.95"/>
  <path d="m23.52,63.99c-.12,0-.24-.02-.35-.06-.42-.16-.69-.57-.66-1.03.03-.36,2.99-35.55,41.73-38.57l-.09-13.26c0-.42.25-.79.64-.95.39-.16.83-.06,1.12.24l21.32,22.56c.37.39.37,1,0,1.39l-21.46,22.77c-.29.31-.73.4-1.12.25-.39-.16-.64-.53-.64-.95l.12-12.92c-26.07,1.87-39.66,19.93-39.8,20.11-.2.27-.5.41-.82.41h0Z"/>
</svg>