<svg id="Layer_3" data-name="Layer 3" xmlns="http://www.w3.org/2000/svg" viewBox="0 0 96 96" fill="currentColor"><defs><style>.cls-1,.cls-2{fill:none;stroke:#fff;stroke-linejoin:round;}.cls-1{strokeWidth:5px;}.cls-2{strokeWidth:6px;}</style></defs><path class="cls-1" d="M62.49,64.8h-29l.66-19.18A12.44,12.44,0,0,1,46.6,33.19h2.8A12.44,12.44,0,0,1,61.83,45.62Z"/><line class="cls-1" x1="28.25" y1="64.8" x2="67.75" y2="64.8"/><path class="cls-1" d="M53.11,31.68a3.71,3.71,0,0,0,0-.67,5.16,5.16,0,1,0-10.32,0,3.71,3.71,0,0,0,0,.67"/><line class="cls-1" x1="33.69" y1="55.18" x2="62.31" y2="55.18"/><polyline class="cls-2" points="24.98 51.93 22.18 69.63 4.48 66.83"/><polyline class="cls-2" points="69.22 42.29 72.02 24.59 89.72 27.39"/><path class="cls-2" d="M63.6,18.28a33.59,33.59,0,0,0-41.41,51.3"/><path class="cls-2" d="M72,24.59h0A33.6,33.6,0,0,1,29,75.75"/></svg>