<?xml version="1.0" encoding="UTF-8"?>
<svg id="Layer_1" data-name="Layer 1" xmlns="http://www.w3.org/2000/svg" viewBox="0 0 100 100">
  <defs>
    <style>
      .cls-1 {
        fill: none;
        stroke: #000;
        stroke-linejoin: round;
        strokeWidth: 5px;
      }
    </style>
  </defs>
  <path class="cls-1" d="m76.92,78.59H23.08l1.22-35.64c0-12.75,10.34-23.09,23.09-23.09h5.21c12.75,0,23.09,10.34,23.09,23.09l1.22,35.64Z"/>
  <line class="cls-1" x1="10" y1="78.59" x2="90" y2="78.59"/>
  <path class="cls-1" d="m56.73,18.57c.05-.29.07-.59.07-.89,0-3.76-3.04-6.8-6.8-6.8s-6.8,3.04-6.8,6.8c0,.3.02.6.07.89"/>
  <path class="cls-1" d="m40,78.59c-.07.43-.1.87-.1,1.32,0,5.58,4.51,10.09,10.09,10.09s10.09-4.51,10.09-10.09c0-.45-.03-.88-.1-1.32"/>
  <line class="cls-1" x1="23.42" y1="69.07" x2="76.58" y2="69.07"/>
</svg>