<svg width="22" height="22" viewBox="0 0 22 22" fill="none" xmlns="http://www.w3.org/2000/svg">
  <path
    d="M11.0001 10.9997C13.5314 10.9997 15.5834 8.94765 15.5834 6.41634C15.5834 3.88504 13.5314 1.83301 11.0001 1.83301C8.46878 1.83301 6.41675 3.88504 6.41675 6.41634C6.41675 8.94765 8.46878 10.9997 11.0001 10.9997Z"
    stroke="currentColor" strokeWidth="1.5" strokeLinecap="round" stroke-linejoin="round" />
  <path
    d="M3.12573 20.1667C3.12573 16.6192 6.6549 13.75 10.9999 13.75C11.8799 13.75 12.7324 13.8692 13.5299 14.0892"
    stroke="currentColor" strokeWidth="1.5" strokeLinecap="round" stroke-linejoin="round" />
  <path
    d="M20.1666 16.4997C20.1666 16.793 20.1299 17.0772 20.0566 17.3522C19.9741 17.7188 19.8274 18.0763 19.6349 18.388C19.0024 19.4513 17.8383 20.1663 16.4999 20.1663C15.5558 20.1663 14.7032 19.8088 14.0616 19.2221C13.7866 18.9838 13.5482 18.6997 13.3649 18.388C13.0257 17.838 12.8333 17.1872 12.8333 16.4997C12.8333 15.5097 13.2274 14.6022 13.8691 13.9422C14.5383 13.2547 15.4733 12.833 16.4999 12.833C17.5816 12.833 18.5624 13.3005 19.2224 14.0522C19.8091 14.703 20.1666 15.5647 20.1666 16.4997Z"
    stroke="currentColor" strokeWidth="1.5" stroke-miterlimit="10" strokeLinecap="round"
    stroke-linejoin="round" />
  <path d="M17.8659 16.4814H15.1343" stroke="currentColor" strokeWidth="1.5" stroke-miterlimit="10"
    strokeLinecap="round" stroke-linejoin="round" />
  <path d="M16.5 15.1436V17.8844" stroke="currentColor" strokeWidth="1.5" stroke-miterlimit="10"
    strokeLinecap="round" stroke-linejoin="round" />
</svg>