<?xml version="1.0" encoding="UTF-8"?>
<svg id="Layer_1" data-name="Layer 1" xmlns="http://www.w3.org/2000/svg" viewBox="15 30 70 50">
  <defs>
    <style>
      .cls-1 {
        fill: #ffffff;
      }
    </style>
  </defs>
  <path class="cls-1" d="m33.57,54.97c-.42-.82-1.03-1.47-1.82-1.95-.8-.48-1.75-.72-2.88-.72-1.02,0-1.88.16-2.6.52l-3.09,6.69c.01.74.1,1.44.26,2.12.17.8.47,1.51.89,2.15.43.64,1.01,1.14,1.73,1.51.74.37,1.65.56,2.77.56.9,0,1.81-.13,2.71-.38.89-.26,1.66-.62,2.3-1.09-.06-.38-.17-.78-.35-1.21-.16-.43-.39-.78-.68-1.07-.52.23-1.07.42-1.64.57-.56.15-1.14.24-1.72.24-.7,0-1.22-.16-1.57-.48s-.57-.74-.69-1.26c-.06-.28-.1-.56-.13-.86h6.81c.11-.42.21-.81.25-1.18.05-.37.07-.83.07-1.38,0-1.04-.21-1.97-.63-2.79Zm-2.9,2.7h-3.62c.04-.78.18-1.39.4-1.82.28-.54.75-.82,1.41-.82.44,0,.79.11,1.06.33.27.22.46.49.57.84.12.36.18.75.18,1.17v.3Z"/>
  <path class="cls-1" d="m35.06,54.45c.08-.34.24-.71.47-1.1.24-.39.48-.69.72-.87,1.14.11,2,.55,2.58,1.32.58.77.92,1.78,1.03,3.03v8.66c-.56.09-1.2.14-1.91.14s-1.33-.05-1.91-.14v-8.36c0-.75-.11-1.35-.33-1.78-.22-.43-.43-.73-.65-.89Zm9.23-1.73c0,.45-.08,1.03-.23,1.73-.15.7-.39,1.31-.72,1.84-.21-.08-.43-.13-.64-.16-.21-.03-.43-.06-.65-.08-.36,0-.68.07-.97.21-.29.14-.54.33-.77.58s-.44.55-.63.91c-.19.36-.37.75-.55,1.19l-.45-.58c.04-.69.13-1.39.28-2.08s.36-1.32.64-1.89c.29-.57.68-1.03,1.17-1.37s1.12-.51,1.87-.51c.37,0,.67.02.91.06.24.04.48.09.73.16Z"/>
  <path class="cls-1" d="m50.18,65.48c-.56.09-1.2.14-1.91.14s-1.33-.05-1.91-.14v-8.63c0-.43-.09-.78-.26-1.05s-.49-.41-.94-.41h-.36c-.11-.42-.17-.85-.17-1.3,0-.21.01-.44.04-.69.03-.24.07-.48.13-.7.38-.04.76-.07,1.16-.1s.73-.03,1-.03h.54c.82,0,1.48.27,1.97.8s.73,1.26.73,2.16v9.95Zm-4.61-16.39c0-.51.1-.99.3-1.44.21-.11.49-.21.83-.28.34-.08.67-.12,1.01-.12s.67.04,1.02.12c.36.08.63.17.82.28.09.21.17.45.22.71.05.26.08.5.08.73,0,.51-.1.99-.3,1.45-.19.11-.46.2-.82.28-.36.07-.7.11-1.02.11s-.68-.04-1.03-.11c-.35-.07-.62-.16-.81-.28-.2-.46-.3-.95-.3-1.45Z"/>
  <path class="cls-1" d="m65.06,65.48c-.35.04-.69.07-1,.09s-.63.03-.94.03c-.29,0-.59,0-.9-.03s-.64-.05-.99-.09v-8.63c0-.43-.09-.78-.26-1.06-.18-.28-.49-.42-.94-.42h-1.52c-.54,0-1.08,0-1.61-.02-.54-.01-1.08-.03-1.63-.04l-4.02.08c-.1-.48-.15-.94-.15-1.39s.05-.9.15-1.35l4.06.05c1.25-.03,2.4-.05,3.46-.08,1.06-.03,2.09-.04,3.09-.04h.53c.85,0,1.51.28,1.97.83.47.55.7,1.27.7,2.15v9.92Zm-11.61-11.2c-.04-.51-.12-1.05-.24-1.64s-.18-1.17-.18-1.75c0-.84.18-1.59.55-2.26s.88-1.19,1.54-1.58c.66-.39,1.44-.58,2.32-.58.4,0,.81.03,1.23.08.42.05.78.12,1.1.21.03.27.01.57-.04.93s-.14.69-.24,1.01c-.11.32-.22.56-.35.73-.15-.03-.29-.04-.41-.05-.12,0-.22-.01-.31-.01-.53,0-.95.15-1.25.46-.3.3-.46.76-.46,1.36,0,.48.07,1,.21,1.55s.24,1.09.29,1.6v11.18c-.37.04-.7.07-.99.09-.29.02-.58.03-.87.03s-.58,0-.88-.03-.64-.05-1-.09v-11.2Zm7.36-5.14c0-.23.02-.48.07-.73.05-.26.12-.49.21-.71.21-.11.47-.2.8-.28.33-.07.65-.11.97-.11s.64.04.98.11c.34.07.6.17.79.28.09.21.16.45.21.71s.06.5.06.73c0,.51-.09,1-.27,1.45-.18.11-.44.2-.78.28-.34.07-.67.11-.99.11s-.65-.04-.99-.11c-.34-.07-.6-.16-.78-.28-.09-.22-.17-.46-.21-.72-.05-.26-.07-.5-.07-.73Z"/>
  <path class="cls-1" d="m69.14,60.32v-2.65h5.05v-.3c0-.43-.06-.82-.18-1.17-.12-.35-.31-.63-.58-.85-.27-.21-.62-.32-1.05-.32-.66,0-1.13.27-1.41.82-.28.54-.42,1.36-.42,2.46v1.16c0,.62.06,1.19.17,1.71.11.52.34.94.69,1.27.35.32.87.48,1.57.48.58,0,1.16-.08,1.73-.24s1.12-.35,1.64-.57c.28.28.51.64.68,1.07s.29.83.35,1.21c-.64.47-1.41.83-2.31,1.09s-1.8.38-2.71.38c-1.11,0-2.04-.19-2.77-.56-.73-.37-1.31-.88-1.73-1.51-.42-.63-.72-1.35-.9-2.15-.18-.8-.26-1.62-.26-2.48,0-1.29.2-2.46.59-3.49.39-1.03,1.01-1.85,1.84-2.46s1.92-.91,3.26-.91c1.13,0,2.09.24,2.88.72.79.48,1.4,1.13,1.82,1.95.42.82.63,1.75.63,2.79,0,.55-.02,1.01-.07,1.37-.05.37-.13.76-.25,1.18h-8.26Z"/>
  <path class="cls-1" d="m78.72,59.24c0-1.48.23-2.73.7-3.74.47-1.01,1.09-1.77,1.87-2.29.78-.52,1.63-.78,2.56-.78s1.67.18,2.35.55c.68.36,1.31.73,1.89,1.09l-.59,2.74c-.5-.4-1.01-.75-1.53-1.05-.53-.3-1.01-.45-1.46-.45-.42,0-.77.16-1.05.48-.28.32-.48.77-.62,1.36-.13.59-.2,1.3-.2,2.12s.07,1.49.22,2.01.35.9.6,1.14c.25.24.53.37.84.37.29,0,.63-.09,1-.26.38-.17.74-.49,1.1-.96s.65-1.15.88-2.04l.85,2.24c-.09.68-.35,1.33-.8,1.96s-1.02,1.15-1.71,1.55c-.69.4-1.45.6-2.29.6-1.04,0-1.89-.28-2.58-.84-.68-.56-1.19-1.34-1.52-2.34-.33-1-.5-2.14-.5-3.44Zm11.31,2.54c0,.42.06.81.19,1.16s.3.61.53.78c-.08.34-.23.71-.47,1.1-.24.39-.48.68-.73.87-1.09-.04-1.9-.43-2.45-1.16-.54-.73-.82-1.61-.82-2.65v-15.14l.18-.18h1.48c.76,0,1.3.17,1.61.52.31.35.47.95.47,1.81v12.89Z"/>
  <path class="cls-1" d="m32.96,34.61l-14.22,30.87c-.45.05-.95.09-1.52.11-.55.02-1.09.03-1.59.03-.74,0-1.31-.12-1.73-.36s-.73-.71-.92-1.42l-3.72-13.9c.35-.15.73-.29,1.13-.4.39-.1.81-.16,1.23-.16.58,0,1.13.14,1.51.39.7.44,1.03.83,1.41,1.55.38.74.91,3.14,1.04,3.66.11.52.23,1.06.33,1.58.1.52.21,1.04.29,1.54.02.13.05.22.09.26.04.03.1.05.17.05l12.86-24.15c.28-.06.56-.1.85-.11.3-.02.57-.02.84-.02.25,0,.54.02.89.05.35.04.65.1.91.21l.15.22Z"/>
</svg>