<svg width="205" height="60" viewBox="0 0 205 60" fill="none" xmlns="http://www.w3.org/2000/svg">
<path d="M203.864 52.856C203.864 56.0002 201.264 58.547 198.048 58.547H7.72568C4.51139 58.547 1.90234 56.0002 1.90234 52.856V7.4719C1.90234 4.3292 4.51139 1.77344 7.72568 1.77344H198.047C201.264 1.77344 203.862 4.3292 203.862 7.4719L203.864 52.856Z" fill="black"/>
<path d="M197.434 1.842C200.936 1.842 203.786 4.62054 203.786 8.03516V52.2852C203.786 55.6998 200.936 58.4783 197.434 58.4783H8.33168C4.8295 58.4783 1.97973 55.6998 1.97973 52.2852V8.03516C1.97973 4.62054 4.8295 1.842 8.33168 1.842H197.434ZM197.434 0.660162H8.33168C4.17332 0.660162 0.767578 3.98076 0.767578 8.03516V52.2852C0.767578 56.3396 4.17332 59.6602 8.33168 59.6602H197.434C201.593 59.6602 204.998 56.3396 204.998 52.2852V8.03516C204.998 3.98076 201.593 0.660162 197.434 0.660162Z" fill="#A6A6A6"/>
<path d="M46.3455 29.8434C46.3017 25.0894 50.3379 22.7766 50.5224 22.669C48.2366 19.4195 44.6935 18.9756 43.4485 18.9402C40.4728 18.6348 37.5863 20.6762 36.0705 20.6762C34.5244 20.6762 32.1901 18.9697 29.6743 19.0198C26.4368 19.0685 23.4082 20.896 21.7471 23.7339C18.319 29.5203 20.8757 38.0237 24.16 42.7009C25.803 44.9916 27.7227 47.5492 30.2355 47.4593C32.6938 47.3604 33.6121 45.9312 36.5788 45.9312C39.5182 45.9312 40.3805 47.4593 42.9432 47.4017C45.5816 47.3604 47.2426 45.1007 48.8281 42.7894C50.7267 40.1639 51.4891 37.5783 51.5194 37.4455C51.4574 37.4249 46.3955 35.5413 46.3455 29.8434Z" fill="white"/>
<path d="M41.5045 15.8633C42.8267 14.2511 43.7314 12.0578 43.4803 9.83203C41.5665 9.91463 39.1733 11.1227 37.7951 12.6994C36.5757 14.0889 35.4865 16.3663 35.7679 18.508C37.9176 18.6643 40.1248 17.4504 41.5045 15.8633Z" fill="white"/>
<path d="M81.9223 47.1293H78.4867L76.6048 41.3635H70.0633L68.2706 47.1293H64.9258L71.4067 27.5H75.4096L81.9223 47.1293ZM76.0374 38.9445L74.3355 33.8189C74.1555 33.2953 73.8181 32.0622 73.3204 30.1211H73.2599C73.0617 30.9559 72.7425 32.189 72.3038 33.8189L70.6321 38.9445H76.0374Z" fill="white"/>
<path d="M98.5894 39.8772C98.5894 42.2844 97.9222 44.1871 96.5879 45.5839C95.3928 46.8274 93.9087 47.4483 92.1372 47.4483C90.225 47.4483 88.8513 46.7787 88.0147 45.4394H87.9542V52.8955H84.7289V37.6337C84.7289 36.1203 84.688 34.5672 84.6094 32.9742H87.4459L87.6259 35.2176H87.6865C88.7621 33.5273 90.3944 32.6836 92.585 32.6836C94.2975 32.6836 95.7271 33.3429 96.8708 34.663C98.0175 35.9846 98.5894 37.7222 98.5894 39.8772ZM95.3035 39.9922C95.3035 38.6146 94.9858 37.4788 94.3474 36.585C93.65 35.6528 92.7136 35.1867 91.5396 35.1867C90.7439 35.1867 90.0207 35.4463 89.3748 35.9581C88.7273 36.4743 88.3037 37.1484 88.1055 37.9833C88.0057 38.3727 87.9557 38.6913 87.9557 38.942V41.302C87.9557 42.3316 88.2795 43.2003 88.927 43.9098C89.5745 44.6193 90.4156 44.9733 91.4503 44.9733C92.6651 44.9733 93.6107 44.516 94.2869 43.6045C94.9646 42.6915 95.3035 41.4879 95.3035 39.9922Z" fill="white"/>
<path d="M115.285 39.8772C115.285 42.2844 114.618 44.1871 113.282 45.5839C112.089 46.8274 110.604 47.4483 108.833 47.4483C106.921 47.4483 105.547 46.7787 104.712 45.4394H104.651V52.8955H101.426V37.6337C101.426 36.1203 101.385 34.5672 101.307 32.9742H104.143L104.323 35.2176H104.384C105.458 33.5273 107.09 32.6836 109.282 32.6836C110.993 32.6836 112.423 33.3429 113.57 34.663C114.712 35.9846 115.285 37.7222 115.285 39.8772ZM111.999 39.9922C111.999 38.6146 111.68 37.4788 111.042 36.585C110.344 35.6528 109.411 35.1867 108.235 35.1867C107.438 35.1867 106.716 35.4463 106.069 35.9581C105.422 36.4743 104.999 37.1484 104.801 37.9833C104.703 38.3727 104.651 38.6913 104.651 38.942V41.302C104.651 42.3316 104.975 43.2003 105.62 43.9098C106.267 44.6178 107.108 44.9733 108.146 44.9733C109.361 44.9733 110.306 44.516 110.983 43.6045C111.66 42.6915 111.999 41.4879 111.999 39.9922Z" fill="white"/>
<path d="M133.955 41.6232C133.955 43.2929 133.36 44.6513 132.167 45.7001C130.855 46.8461 129.029 47.4184 126.683 47.4184C124.516 47.4184 122.779 47.0113 121.465 46.1957L122.212 43.5746C123.628 44.4094 125.182 44.8283 126.875 44.8283C128.089 44.8283 129.035 44.5599 129.714 44.0259C130.39 43.492 130.728 42.7751 130.728 41.8813C130.728 41.0848 130.449 40.4137 129.891 39.8694C129.336 39.3251 128.409 38.8192 127.114 38.3516C123.589 37.0698 121.828 35.1922 121.828 32.723C121.828 31.1094 122.445 29.7863 123.681 28.7567C124.913 27.7257 126.555 27.2109 128.61 27.2109C130.442 27.2109 131.964 27.5222 133.179 28.1431L132.372 30.7067C131.238 30.1049 129.955 29.804 128.519 29.804C127.385 29.804 126.498 30.0769 125.863 30.6197C125.326 31.1049 125.056 31.6964 125.056 32.397C125.056 33.1729 125.363 33.8145 125.981 34.319C126.518 34.7851 127.493 35.2895 128.909 35.8338C130.642 36.5138 131.914 37.3088 132.732 38.2203C133.548 39.1289 133.955 40.2662 133.955 41.6232Z" fill="white"/>
<path d="M144.618 35.332H141.063V42.2041C141.063 43.9519 141.689 44.8251 142.945 44.8251C143.521 44.8251 144 44.7765 144.378 44.6791L144.467 47.0671C143.832 47.2987 142.995 47.4152 141.959 47.4152C140.685 47.4152 139.689 47.0362 138.971 46.2795C138.255 45.5213 137.895 44.2499 137.895 42.4637V35.3291H135.777V32.9691H137.895V30.3775L141.063 29.4453V32.9691H144.618V35.332Z" fill="white"/>
<path d="M160.658 39.9332C160.658 42.1088 160.02 43.8951 158.746 45.2919C157.41 46.73 155.637 47.4469 153.427 47.4469C151.297 47.4469 149.601 46.758 148.337 45.3804C147.072 44.0027 146.439 42.2637 146.439 40.1677C146.439 37.9744 147.09 36.1779 148.396 34.781C149.698 33.3827 151.456 32.6836 153.666 32.6836C155.796 32.6836 157.51 33.3724 158.804 34.7515C160.041 36.0894 160.658 37.8166 160.658 39.9332ZM157.312 40.035C157.312 38.7296 157.026 37.6101 156.447 36.6764C155.771 35.5466 154.804 34.9831 153.551 34.9831C152.255 34.9831 151.27 35.548 150.594 36.6764C150.014 37.6116 149.728 38.7488 149.728 40.094C149.728 41.3994 150.014 42.5189 150.594 43.4511C151.291 44.5809 152.265 45.1444 153.522 45.1444C154.754 45.1444 155.721 44.5691 156.418 43.4216C157.013 42.4702 157.312 41.3389 157.312 40.035Z" fill="white"/>
<path d="M171.142 35.7398C170.823 35.6823 170.482 35.6528 170.125 35.6528C168.991 35.6528 168.113 36.0702 167.496 36.9065C166.959 37.644 166.69 38.5762 166.69 39.7016V47.1283H163.466L163.496 37.4316C163.496 35.8003 163.455 34.3149 163.375 32.9756H166.184L166.302 35.6837H166.392C166.732 34.753 167.269 34.0037 168.004 33.4417C168.723 32.9358 169.499 32.6836 170.336 32.6836C170.634 32.6836 170.903 32.7042 171.142 32.7411V35.7398Z" fill="white"/>
<path d="M185.567 39.3808C185.567 39.9442 185.53 40.4192 185.449 40.8071H175.773C175.811 42.2054 176.279 43.2748 177.177 44.0123C177.993 44.6716 179.047 45.002 180.342 45.002C181.775 45.002 183.082 44.7793 184.257 44.3323L184.763 46.5153C183.389 47.0994 181.767 47.39 179.896 47.39C177.645 47.39 175.878 46.744 174.592 45.4533C173.309 44.1627 172.666 42.4296 172.666 40.2554C172.666 38.1211 173.264 36.3437 174.46 34.9263C175.713 33.4129 177.406 32.6562 179.536 32.6562C181.628 32.6562 183.212 33.4129 184.287 34.9263C185.139 36.1284 185.567 37.6152 185.567 39.3808ZM182.492 38.5651C182.513 37.6329 182.303 36.8275 181.865 36.1476C181.307 35.2729 180.449 34.8363 179.295 34.8363C178.241 34.8363 177.383 35.2626 176.728 36.1181C176.191 36.798 175.872 37.6137 175.773 38.5636H182.492V38.5651Z" fill="white"/>
<path d="M74.9717 15.4271C74.9717 17.1632 74.4377 18.4701 73.3711 19.3477C72.3833 20.1575 70.9794 20.5631 69.161 20.5631C68.2593 20.5631 67.4878 20.5247 66.8418 20.448V10.9623C67.6844 10.8296 68.5921 10.7617 69.5724 10.7617C71.3046 10.7617 72.6102 11.129 73.4906 11.8635C74.477 12.694 74.9717 13.8813 74.9717 15.4271ZM73.3 15.4699C73.3 14.3445 72.9944 13.4816 72.3833 12.8798C71.7721 12.2795 70.8795 11.9786 69.7041 11.9786C69.2048 11.9786 68.7797 12.011 68.4272 12.0789V19.2902C68.6224 19.3197 68.9794 19.3329 69.4983 19.3329C70.7116 19.3329 71.648 19.004 72.3076 18.3462C72.9672 17.6883 73.3 16.7296 73.3 15.4699Z" fill="white"/>
<path d="M83.8363 16.9435C83.8363 18.0128 83.5231 18.889 82.8968 19.5763C82.2402 20.2829 81.3704 20.6354 80.2842 20.6354C79.2373 20.6354 78.4037 20.2976 77.782 19.6191C77.1617 18.9421 76.8516 18.0881 76.8516 17.0585C76.8516 15.9818 77.1708 15.0982 77.8122 14.4124C78.4536 13.7265 79.3159 13.3828 80.4022 13.3828C81.449 13.3828 82.2902 13.7206 82.9271 14.3976C83.5322 15.0555 83.8363 15.9051 83.8363 16.9435ZM82.1918 16.9936C82.1918 16.352 82.0496 15.8018 81.7667 15.3431C81.4339 14.7885 80.9604 14.5112 80.3447 14.5112C79.7078 14.5112 79.2237 14.7885 78.8908 15.3431C78.6064 15.8018 78.4657 16.3608 78.4657 17.0216C78.4657 17.6633 78.6079 18.2134 78.8908 18.6722C79.2343 19.2268 79.7123 19.5041 80.3295 19.5041C80.9347 19.5041 81.4097 19.2223 81.7516 18.6574C82.0451 18.1898 82.1918 17.6352 82.1918 16.9936Z" fill="white"/>
<path d="M95.7193 13.5234L93.4879 20.4766H92.0356L91.1112 17.4573C90.8767 16.7035 90.6861 15.9542 90.5379 15.2108H90.5091C90.3715 15.9749 90.1808 16.7227 89.9358 17.4573L88.9539 20.4766H87.485L85.3867 13.5234H87.016L87.8224 16.8289C88.0175 17.6107 88.1779 18.3555 88.3065 19.0606H88.3352C88.4532 18.4794 88.6484 17.739 88.9237 16.8437L89.9358 13.5249H91.2277L92.1974 16.7729C92.4319 17.5649 92.6225 18.3275 92.7693 19.0621H92.8132C92.9206 18.3467 93.0824 17.5841 93.2973 16.7729L94.1626 13.5249H95.7193V13.5234Z" fill="white"/>
<path d="M103.938 20.4742H102.353V16.4917C102.353 15.2645 101.875 14.6509 100.916 14.6509C100.445 14.6509 100.066 14.819 99.7706 15.1568C99.4787 15.4946 99.3304 15.8928 99.3304 16.3486V20.4727H97.745V15.5079C97.745 14.8972 97.7253 14.2349 97.6875 13.5181H99.0808L99.1549 14.6052H99.1988C99.3834 14.2674 99.6587 13.9886 100.02 13.7659C100.45 13.5063 100.931 13.375 101.457 13.375C102.123 13.375 102.677 13.5845 103.117 14.0048C103.665 14.5196 103.938 15.2881 103.938 16.3088V20.4742Z" fill="white"/>
<path d="M108.31 20.4756H106.727V10.332H108.31V20.4756Z" fill="white"/>
<path d="M117.645 16.9435C117.645 18.0128 117.332 18.889 116.705 19.5763C116.049 20.2829 115.177 20.6354 114.093 20.6354C113.044 20.6354 112.211 20.2976 111.591 19.6191C110.97 18.9421 110.66 18.0881 110.66 17.0585C110.66 15.9818 110.979 15.0982 111.621 14.4124C112.262 13.7265 113.125 13.3828 114.209 13.3828C115.258 13.3828 116.097 13.7206 116.736 14.3976C117.341 15.0555 117.645 15.9051 117.645 16.9435ZM115.999 16.9936C115.999 16.352 115.857 15.8018 115.574 15.3431C115.242 14.7885 114.767 14.5112 114.153 14.5112C113.515 14.5112 113.031 14.7885 112.699 15.3431C112.415 15.8018 112.274 16.3608 112.274 17.0216C112.274 17.6633 112.417 18.2134 112.699 18.6722C113.043 19.2268 113.521 19.5041 114.138 19.5041C114.743 19.5041 115.217 19.2223 115.559 18.6574C115.854 18.1898 115.999 17.6352 115.999 16.9936Z" fill="white"/>
<path d="M125.318 20.4776H123.894L123.776 19.6766H123.732C123.245 20.3153 122.551 20.6354 121.649 20.6354C120.976 20.6354 120.431 20.4245 120.021 20.0056C119.649 19.625 119.463 19.1515 119.463 18.5896C119.463 17.74 119.826 17.0924 120.557 16.644C121.286 16.1956 122.312 15.9759 123.632 15.9862V15.8564C123.632 14.9404 123.139 14.4832 122.151 14.4832C121.448 14.4832 120.827 14.6557 120.292 14.9979L119.97 13.9831C120.632 13.5834 121.451 13.3828 122.416 13.3828C124.28 13.3828 125.215 14.3416 125.215 16.2591V18.8197C125.215 19.5144 125.249 20.0675 125.318 20.4776ZM123.672 18.0881V17.0157C121.923 16.9862 121.048 17.4538 121.048 18.417C121.048 18.7798 121.148 19.0512 121.352 19.2327C121.557 19.4141 121.817 19.5041 122.127 19.5041C122.475 19.5041 122.8 19.3964 123.097 19.1825C123.395 18.9672 123.578 18.6943 123.646 18.3595C123.662 18.2842 123.672 18.1928 123.672 18.0881Z" fill="white"/>
<path d="M134.327 20.4756H132.92L132.846 19.359H132.802C132.353 20.2086 131.587 20.6334 130.512 20.6334C129.653 20.6334 128.937 20.3045 128.37 19.6467C127.802 18.9888 127.52 18.1348 127.52 17.0861C127.52 15.9606 127.827 15.0491 128.444 14.3529C129.041 13.7039 129.774 13.3794 130.645 13.3794C131.603 13.3794 132.273 13.6936 132.654 14.3234H132.684V10.332H134.271V18.6024C134.271 19.2794 134.289 19.9033 134.327 20.4756ZM132.684 17.5433V16.384C132.684 16.1834 132.669 16.0211 132.64 15.8972C132.551 15.5255 132.359 15.2128 132.067 14.9606C131.772 14.7084 131.417 14.5815 131.007 14.5815C130.415 14.5815 129.952 14.8101 129.612 15.2689C129.274 15.7276 129.103 16.3132 129.103 17.0285C129.103 17.7159 129.265 18.2734 129.591 18.7027C129.934 19.1599 130.397 19.3885 130.976 19.3885C131.497 19.3885 131.913 19.1983 132.229 18.8162C132.535 18.4637 132.684 18.0389 132.684 17.5433Z" fill="white"/>
<path d="M147.887 16.9435C147.887 18.0128 147.574 18.889 146.948 19.5763C146.291 20.2829 145.423 20.6354 144.335 20.6354C143.29 20.6354 142.456 20.2976 141.833 19.6191C141.212 18.9421 140.902 18.0881 140.902 17.0585C140.902 15.9818 141.222 15.0982 141.863 14.4124C142.504 13.7265 143.367 13.3828 144.454 13.3828C145.5 13.3828 146.342 13.7206 146.978 14.3976C147.583 15.0555 147.887 15.9051 147.887 16.9435ZM146.244 16.9936C146.244 16.352 146.102 15.8018 145.819 15.3431C145.485 14.7885 145.013 14.5112 144.395 14.5112C143.76 14.5112 143.276 14.7885 142.942 15.3431C142.657 15.8018 142.517 16.3608 142.517 17.0216C142.517 17.6633 142.659 18.2134 142.942 18.6722C143.285 19.2268 143.763 19.5041 144.38 19.5041C144.985 19.5041 145.462 19.2223 145.804 18.6574C146.096 18.1898 146.244 17.6352 146.244 16.9936Z" fill="white"/>
<path d="M156.412 20.4742H154.828V16.4917C154.828 15.2645 154.35 14.6509 153.389 14.6509C152.918 14.6509 152.539 14.819 152.245 15.1568C151.952 15.4946 151.805 15.8928 151.805 16.3486V20.4727H150.218V15.5079C150.218 14.8972 150.2 14.2349 150.162 13.5181H151.554L151.628 14.6052H151.672C151.858 14.2674 152.133 13.9886 152.493 13.7659C152.925 13.5063 153.404 13.375 153.932 13.375C154.596 13.375 155.15 13.5845 155.59 14.0048C156.139 14.5196 156.412 15.2881 156.412 16.3088V20.4742Z" fill="white"/>
<path d="M167.082 14.6786H165.336V18.0563C165.336 18.9148 165.646 19.344 166.26 19.344C166.545 19.344 166.781 19.3204 166.967 19.2717L167.007 20.4444C166.694 20.5594 166.283 20.6169 165.776 20.6169C165.15 20.6169 164.663 20.4311 164.31 20.0594C163.956 19.6877 163.781 19.0623 163.781 18.1847V14.6786H162.738V13.5207H163.781V12.2463L165.334 11.7891V13.5192H167.08V14.6786H167.082Z" fill="white"/>
<path d="M175.475 20.4756H173.888V16.5226C173.888 15.2762 173.41 14.6523 172.452 14.6523C171.717 14.6523 171.215 15.0137 170.939 15.7364C170.892 15.8884 170.865 16.0742 170.865 16.2925V20.4741H169.281V10.332H170.865V14.5225H170.895C171.395 13.7599 172.11 13.3794 173.038 13.3794C173.694 13.3794 174.237 13.5888 174.668 14.0092C175.205 14.5328 175.475 15.3116 175.475 16.3412V20.4756Z" fill="white"/>
<path d="M184.133 16.6697C184.133 16.947 184.112 17.1801 184.074 17.3703H179.319C179.341 18.0577 179.568 18.5813 180.008 18.9442C180.41 19.2687 180.929 19.4309 181.564 19.4309C182.268 19.4309 182.909 19.3218 183.487 19.102L183.735 20.1758C183.059 20.4619 182.263 20.605 181.342 20.605C180.238 20.605 179.368 20.2879 178.738 19.6536C178.106 19.0194 177.793 18.1683 177.793 17.1004C177.793 16.0517 178.085 15.1785 178.673 14.4823C179.288 13.7389 180.118 13.3672 181.167 13.3672C182.192 13.3672 182.971 13.7389 183.498 14.4823C183.923 15.0723 184.133 15.8024 184.133 16.6697ZM182.62 16.27C182.632 15.8113 182.528 15.416 182.313 15.0826C182.038 14.6534 181.619 14.438 181.052 14.438C180.534 14.438 180.112 14.6475 179.79 15.0679C179.527 15.4027 179.371 15.8024 179.319 16.27H182.62Z" fill="white"/>
</svg>
