<svg width="38" height="41" viewBox="0 0 38 41" fill="none" xmlns="http://www.w3.org/2000/svg">
<rect x="0.5" y="0.859375" width="37" height="39" rx="18.5" fill="white"/>
<rect x="0.5" y="0.859375" width="37" height="39" rx="18.5" stroke="#1A1816"/>
<g clip-path="url(#clip0_776_1494)">
<path d="M16.509 14.0326C16.2984 13.5241 15.7434 13.2534 15.2129 13.3983L12.8066 14.0545C12.3309 14.1858 12 14.6178 12 15.11C12 21.8748 17.4852 27.36 24.25 27.36C24.7422 27.36 25.1742 27.0291 25.3055 26.5534L25.9617 24.1471C26.1066 23.6166 25.8359 23.0616 25.3273 22.851L22.7023 21.7573C22.2566 21.5713 21.7398 21.6998 21.4363 22.0744L20.3316 23.4225C18.4066 22.5119 16.848 20.9534 15.9375 19.0284L17.2855 17.9264C17.6602 17.6201 17.7887 17.1061 17.6027 16.6604L16.509 14.0354V14.0326Z" fill="black"/>
</g>
<defs>
<clipPath id="clip0_776_1494">
<rect width="14" height="14" fill="white" transform="translate(12 13.3594)"/>
</clipPath>
</defs>
</svg>
