<svg width="205" height="60" viewBox="0 0 205 60" fill="none" xmlns="http://www.w3.org/2000/svg">
<path d="M197.215 59.6602H8.37207C4.21942 59.6602 0.818359 56.3396 0.818359 52.2852V8.03516C0.818359 3.98075 4.21942 0.660157 8.37207 0.660157H197.215C201.367 0.660157 204.768 3.98075 204.768 8.03516V52.2852C204.768 56.3396 201.367 59.6602 197.215 59.6602Z" fill="black"/>
<path d="M197.215 1.842C200.712 1.842 203.558 4.62053 203.558 8.03516V52.2852C203.558 55.6998 200.712 58.4783 197.215 58.4783H8.37207C4.8747 58.4783 2.02884 55.6998 2.02884 52.2852V8.03516C2.02884 4.62053 4.8747 1.842 8.37207 1.842H197.215ZM197.215 0.660157H8.37207C4.21942 0.660157 0.818359 3.98075 0.818359 8.03516V52.2852C0.818359 56.3396 4.21942 59.6602 8.37207 59.6602H197.215C201.367 59.6602 204.768 56.3396 204.768 52.2852V8.03516C204.768 3.98075 201.367 0.660157 197.215 0.660157Z" fill="#A6A6A6"/>
<path d="M72.4537 15.7688C72.4537 17.0004 72.076 17.9868 71.3319 18.7225C70.4765 19.5946 69.3623 20.0334 67.997 20.0334C66.6921 20.0334 65.5779 19.5872 64.6639 18.7077C63.748 17.8154 63.291 16.7202 63.291 15.4093C63.291 14.0984 63.748 13.0032 64.6639 12.1182C65.5779 11.2313 66.6921 10.7852 67.997 10.7852C68.6466 10.7852 69.266 10.9161 69.8571 11.1594C70.4463 11.4047 70.9259 11.7365 71.2734 12.1458L70.484 12.9239C69.8778 12.2251 69.0526 11.8803 67.997 11.8803C67.0452 11.8803 66.22 12.2048 65.5194 12.8594C64.8263 13.5157 64.4788 14.3657 64.4788 15.4093C64.4788 16.4528 64.8263 17.3102 65.5194 17.9666C66.22 18.6137 67.0452 18.9456 67.997 18.9456C69.0073 18.9456 69.8571 18.6137 70.5275 17.9592C70.9694 17.5259 71.2205 16.9285 71.2866 16.1652H67.997V15.0995H72.3857C72.4386 15.33 72.4537 15.5531 72.4537 15.7688Z" fill="white" stroke="white" strokeWidth="0.16" stroke-miterlimit="10"/>
<path d="M79.4164 12.0742H75.294V14.8767H79.0104V15.9424H75.294V18.7449H79.4164V19.8309H74.127V10.9883H79.4164V12.0742Z" fill="white" stroke="white" strokeWidth="0.16" stroke-miterlimit="10"/>
<path d="M84.3304 19.8309H83.1634V12.0742H80.6348V10.9883H86.8609V12.0742H84.3304V19.8309Z" fill="white" stroke="white" strokeWidth="0.16" stroke-miterlimit="10"/>
<path d="M91.3672 19.8309V10.9883H92.5323V19.8309H91.3672Z" fill="white" stroke="white" strokeWidth="0.16" stroke-miterlimit="10"/>
<path d="M97.6956 19.8309H96.538V12.0742H94V10.9883H100.234V12.0742H97.6956V19.8309Z" fill="white" stroke="white" strokeWidth="0.16" stroke-miterlimit="10"/>
<path d="M112.021 18.693C111.128 19.5872 110.022 20.0334 108.702 20.0334C107.374 20.0334 106.267 19.5872 105.374 18.693C104.483 17.8006 104.039 16.7054 104.039 15.4093C104.039 14.1131 104.483 13.0179 105.374 12.1256C106.267 11.2313 107.374 10.7852 108.702 10.7852C110.014 10.7852 111.121 11.2313 112.014 12.1329C112.913 13.0327 113.357 14.1205 113.357 15.4093C113.357 16.7054 112.913 17.8006 112.021 18.693ZM106.237 17.9518C106.909 18.6137 107.727 18.9456 108.702 18.9456C109.668 18.9456 110.494 18.6137 111.158 17.9518C111.829 17.2899 112.169 16.4399 112.169 15.4093C112.169 14.3786 111.829 13.5287 111.158 12.8668C110.494 12.2048 109.668 11.873 108.702 11.873C107.727 11.873 106.909 12.2048 106.237 12.8668C105.567 13.5287 105.227 14.3786 105.227 15.4093C105.227 16.4399 105.567 17.2899 106.237 17.9518Z" fill="white" stroke="white" strokeWidth="0.16" stroke-miterlimit="10"/>
<path d="M114.994 19.8309V10.9883H116.41L120.814 17.8655H120.865L120.814 16.1655V10.9883H121.979V19.8309H120.763L116.152 12.6145H116.101L116.152 14.3218V19.8309H114.994Z" fill="white" stroke="white" strokeWidth="0.16" stroke-miterlimit="10"/>
<path d="M103.752 32.7464C100.204 32.7464 97.3048 35.383 97.3048 39.0207C97.3048 42.6289 100.204 45.2931 103.752 45.2931C107.308 45.2931 110.207 42.6289 110.207 39.0207C110.207 35.383 107.308 32.7464 103.752 32.7464ZM103.752 42.8225C101.805 42.8225 100.13 41.2535 100.13 39.0207C100.13 36.7584 101.805 35.217 103.752 35.217C105.699 35.217 107.381 36.7584 107.381 39.0207C107.381 41.2535 105.699 42.8225 103.752 42.8225ZM89.685 32.7464C86.1291 32.7464 83.2379 35.383 83.2379 39.0207C83.2379 42.6289 86.1291 45.2931 89.685 45.2931C93.239 45.2931 96.1321 42.6289 96.1321 39.0207C96.1321 35.383 93.239 32.7464 89.685 32.7464ZM89.685 42.8225C87.7361 42.8225 86.0554 41.2535 86.0554 39.0207C86.0554 36.7584 87.7361 35.217 89.685 35.217C91.632 35.217 93.307 36.7584 93.307 39.0207C93.307 41.2535 91.632 42.8225 89.685 42.8225ZM72.946 34.6694V37.3355H79.4667C79.276 38.8253 78.7661 39.9204 77.9843 40.6838C77.0325 41.6056 75.5501 42.6289 72.946 42.6289C68.9331 42.6289 65.7907 39.4669 65.7907 35.5489C65.7907 31.6309 68.9331 28.4689 72.946 28.4689C75.1158 28.4689 76.6945 29.2968 77.8597 30.3698L79.784 28.491C78.1543 26.9718 75.9863 25.8047 72.946 25.8047C67.4431 25.8047 62.8184 30.1762 62.8184 35.5489C62.8184 40.9216 67.4431 45.2931 72.946 45.2931C75.9203 45.2931 78.1543 44.3418 79.9105 42.557C81.7102 40.7999 82.271 38.3293 82.271 36.3343C82.271 35.7148 82.2182 35.1451 82.1237 34.6694H72.946ZM141.394 36.7363C140.863 35.3332 139.226 32.7464 135.891 32.7464C132.586 32.7464 129.835 35.2889 129.835 39.0207C129.835 42.5349 132.558 45.2931 136.208 45.2931C139.16 45.2931 140.863 43.536 141.564 42.5128L139.373 41.0875C138.642 42.1311 137.647 42.8225 136.208 42.8225C134.779 42.8225 133.753 42.1827 133.096 40.9216L141.69 37.4498L141.394 36.7363ZM132.632 38.8253C132.558 36.4063 134.556 35.1673 135.987 35.1673C137.109 35.1673 138.061 35.7148 138.378 36.4984L132.632 38.8253ZM125.646 44.9115H128.471V26.474H125.646V44.9115ZM121.02 34.144H120.925C120.291 33.4102 119.08 32.7464 117.547 32.7464C114.329 32.7464 111.387 35.5047 111.387 39.041C111.387 42.557 114.329 45.2931 117.547 45.2931C119.08 45.2931 120.291 44.6238 120.925 43.8679H121.02V44.7677C121.02 47.1664 119.707 48.4552 117.59 48.4552C115.864 48.4552 114.794 47.2383 114.352 46.215L111.895 47.2162C112.603 48.8792 114.478 50.9258 117.59 50.9258C120.903 50.9258 123.697 49.023 123.697 44.3934V33.1281H121.02V34.144ZM117.789 42.8225C115.842 42.8225 114.212 41.2313 114.212 39.041C114.212 36.8303 115.842 35.217 117.789 35.217C119.707 35.217 121.22 36.8303 121.22 39.041C121.22 41.2313 119.707 42.8225 117.789 42.8225ZM154.62 26.474H147.864V44.9115H150.681V37.9255H154.62C157.75 37.9255 160.818 35.7148 160.818 32.1988C160.818 28.6846 157.742 26.474 154.62 26.474ZM154.694 35.3608H150.681V29.0386H154.694C156.798 29.0386 157.999 30.7441 157.999 32.1988C157.999 33.6259 156.798 35.3608 154.694 35.3608ZM172.111 32.7114C170.075 32.7114 167.958 33.589 167.088 35.5342L169.588 36.5574C170.126 35.5342 171.116 35.2023 172.162 35.2023C173.624 35.2023 175.106 36.0596 175.129 37.5733V37.7669C174.619 37.4793 173.527 37.0534 172.185 37.0534C169.492 37.0534 166.748 38.5008 166.748 41.2018C166.748 43.6725 168.954 45.2636 171.433 45.2636C173.329 45.2636 174.375 44.4284 175.032 43.4568H175.129V44.882H177.85V37.8093C177.85 34.5404 175.35 32.7114 172.111 32.7114ZM171.771 42.8151C170.85 42.8151 169.565 42.3689 169.565 41.2535C169.565 39.8264 171.167 39.2788 172.553 39.2788C173.794 39.2788 174.375 39.5462 175.129 39.8983C174.908 41.6056 173.403 42.8151 171.771 42.8151ZM187.764 33.1152L184.525 41.1078H184.429L181.081 33.1152H178.043L183.073 44.2846L180.203 50.4999H183.147L190.899 33.1152H187.764ZM162.367 44.9115H165.192V26.474H162.367V44.9115Z" fill="white"/>
<path d="M16.5834 11.7808C16.1396 12.2344 15.8828 12.9405 15.8828 13.855V46.4747C15.8828 47.3892 16.1396 48.0953 16.5834 48.5489L16.6929 48.6484L35.4148 30.3769V29.9454L16.6929 11.6739L16.5834 11.7808Z" fill="url(#paint0_linear_1099_3778)"/>
<path d="M41.6478 36.4688L35.4141 30.3752V29.9437L41.6553 23.8501L41.7951 23.9294L49.1864 28.0354C51.2957 29.2007 51.2957 31.1182 49.1864 32.2908L41.7951 36.3895L41.6478 36.4688Z" fill="url(#paint1_linear_1099_3778)"/>
<path d="M41.7944 36.3905L35.4134 30.1605L16.582 48.5482C17.2826 49.2673 18.4251 49.354 19.7244 48.6349L41.7944 36.3905Z" fill="url(#paint2_linear_1099_3778)"/>
<path d="M41.7944 23.9301L19.7244 11.6858C18.4251 10.9741 17.2826 11.0608 16.582 11.7798L35.4134 30.1602L41.7944 23.9301Z" fill="url(#paint3_linear_1099_3778)"/>
<defs>
<linearGradient id="paint0_linear_1099_3778" x1="33.7525" y1="46.8143" x2="9.00558" y2="21.4678" gradientUnits="userSpaceOnUse">
<stop stop-color="#00A0FF"/>
<stop offset="0.0066" stop-color="#00A1FF"/>
<stop offset="0.2601" stop-color="#00BEFF"/>
<stop offset="0.5122" stop-color="#00D2FF"/>
<stop offset="0.7604" stop-color="#00DFFF"/>
<stop offset="1" stop-color="#00E3FF"/>
</linearGradient>
<linearGradient id="paint1_linear_1099_3778" x1="51.9331" y1="30.1574" x2="15.3779" y2="30.1574" gradientUnits="userSpaceOnUse">
<stop stop-color="#FFE000"/>
<stop offset="0.4087" stop-color="#FFBD00"/>
<stop offset="0.7754" stop-color="#FFA500"/>
<stop offset="1" stop-color="#FF9C00"/>
</linearGradient>
<linearGradient id="paint2_linear_1099_3778" x1="38.3246" y1="26.7738" x2="4.76574" y2="-7.59827" gradientUnits="userSpaceOnUse">
<stop stop-color="#FF3A44"/>
<stop offset="1" stop-color="#C31162"/>
</linearGradient>
<linearGradient id="paint3_linear_1099_3778" x1="11.8418" y1="59.4003" x2="26.8273" y2="44.0517" gradientUnits="userSpaceOnUse">
<stop stop-color="#32A071"/>
<stop offset="0.0685" stop-color="#2DA771"/>
<stop offset="0.4762" stop-color="#15CF74"/>
<stop offset="0.8009" stop-color="#06E775"/>
<stop offset="1" stop-color="#00F076"/>
</linearGradient>
</defs>
</svg>
