<svg width="24" height="25" viewBox="0 0 24 25" fill="none" xmlns="http://www.w3.org/2000/svg">
<rect y="0.660156" width="24" height="24" rx="4" fill="black"/>
<path d="M12.0028 9.5165C10.2638 9.5165 8.86103 10.9192 8.86103 12.6583C8.86103 14.3974 10.2638 15.8001 12.0028 15.8001C13.7419 15.8001 15.1446 14.3974 15.1446 12.6583C15.1446 10.9192 13.7419 9.5165 12.0028 9.5165ZM12.0028 14.7009C10.879 14.7009 9.96025 13.7849 9.96025 12.6583C9.96025 11.5317 10.8763 10.6157 12.0028 10.6157C13.1294 10.6157 14.0454 11.5317 14.0454 12.6583C14.0454 13.7849 13.1267 14.7009 12.0028 14.7009ZM16.006 9.38799C16.006 9.79541 15.6778 10.1208 15.2731 10.1208C14.8657 10.1208 14.5403 9.79268 14.5403 9.38799C14.5403 8.9833 14.8685 8.65518 15.2731 8.65518C15.6778 8.65518 16.006 8.9833 16.006 9.38799ZM18.0868 10.1317C18.0403 9.1501 17.8161 8.28057 17.097 7.56416C16.3806 6.84775 15.511 6.62354 14.5294 6.57432C13.5177 6.51689 10.4853 6.51689 9.47354 6.57432C8.49463 6.6208 7.6251 6.84502 6.90596 7.56143C6.18682 8.27783 5.96533 9.14736 5.91611 10.129C5.85869 11.1407 5.85869 14.1731 5.91611 15.1849C5.9626 16.1665 6.18682 17.036 6.90596 17.7524C7.6251 18.4688 8.49189 18.6931 9.47354 18.7423C10.4853 18.7997 13.5177 18.7997 14.5294 18.7423C15.511 18.6958 16.3806 18.4716 17.097 17.7524C17.8134 17.036 18.0376 16.1665 18.0868 15.1849C18.1442 14.1731 18.1442 11.1435 18.0868 10.1317ZM16.7798 16.2704C16.5665 16.8063 16.1536 17.2192 15.6149 17.4353C14.8083 17.7552 12.8942 17.6813 12.0028 17.6813C11.1114 17.6813 9.19463 17.7524 8.39072 17.4353C7.85479 17.222 7.44189 16.8091 7.22588 16.2704C6.90596 15.4638 6.97979 13.5497 6.97979 12.6583C6.97979 11.7669 6.90869 9.8501 7.22588 9.04619C7.43916 8.51025 7.85205 8.09736 8.39072 7.88135C9.19736 7.56143 11.1114 7.63525 12.0028 7.63525C12.8942 7.63525 14.811 7.56416 15.6149 7.88135C16.1509 8.09463 16.5638 8.50752 16.7798 9.04619C17.0997 9.85283 17.0259 11.7669 17.0259 12.6583C17.0259 13.5497 17.0997 15.4665 16.7798 16.2704Z" fill="white"/>
</svg>
