<svg width="24" height="25" viewBox="0 0 24 25" fill="none" xmlns="http://www.w3.org/2000/svg">
<rect y="0.660156" width="24" height="24" rx="4" fill="black"/>
<g clip-path="url(#clip0_1155_1333)">
<path d="M8.61703 17.9099H6.07734V9.73137H8.61703V17.9099ZM7.34582 8.61574C6.53371 8.61574 5.875 7.94309 5.875 7.13098C5.875 6.74089 6.02996 6.36678 6.30579 6.09095C6.58163 5.81512 6.95573 5.66016 7.34582 5.66016C7.73591 5.66016 8.11001 5.81512 8.38585 6.09095C8.66168 6.36678 8.81664 6.74089 8.81664 7.13098C8.81664 7.94309 8.15766 8.61574 7.34582 8.61574ZM18.1223 17.9099H15.588V13.9286C15.588 12.9798 15.5689 11.763 14.2676 11.763C12.9472 11.763 12.7448 12.7939 12.7448 13.8603V17.9099H10.2079V9.73137H12.6437V10.847H12.6792C13.0183 10.2044 13.8465 9.52629 15.0822 9.52629C17.6525 9.52629 18.125 11.2189 18.125 13.4173V17.9099H18.1223Z" fill="white"/>
</g>
<defs>
<clipPath id="clip0_1155_1333">
<rect width="14" height="14" fill="white" transform="translate(5 5.66016)"/>
</clipPath>
</defs>
</svg>
