<svg width="200" height="54" viewBox="0 0 200 54" fill="none" xmlns="http://www.w3.org/2000/svg">
<path d="M39.6693 26.8964L24.0092 11.2422L8.36719 26.8964V42.743H39.6693V26.8964Z" fill="black"/>
<path d="M39.6688 43.1111H8.36667C8.17432 43.1111 8 42.9562 8 42.7441V26.8975C8 26.8012 8.03907 26.705 8.11571 26.6463L23.7773 10.9726C23.9125 10.8373 24.144 10.8373 24.2972 10.9726L39.9588 26.6463C40.0355 26.723 40.0746 26.8012 40.055 26.8975V42.7246C40.0355 42.9366 39.8822 43.0915 39.6703 43.1096L39.6688 43.1111ZM8.73184 42.3787H39.3021V27.0524L24.0072 11.7456L8.7123 27.0524V42.3787H8.73184Z" fill="black"/>
<path d="M21.3697 27.9388C22.082 28.3238 22.6801 28.9224 23.0843 29.6157C23.9319 31.1196 23.9319 32.9694 23.0843 34.4733C22.6801 35.1862 22.082 35.7652 21.3697 36.1697C20.6399 36.5679 19.822 36.7765 18.9909 36.7765C18.1597 36.7765 17.3418 36.5679 16.612 36.1697C15.8997 35.7652 15.3016 35.1862 14.8974 34.4733C14.0498 32.9694 14.0498 31.1196 14.8974 29.6157C15.3016 28.9028 15.8997 28.3238 16.612 27.9388C17.3418 27.5407 18.1597 27.332 18.9909 27.332C19.822 27.332 20.6399 27.5407 21.3697 27.9388ZM17.6519 30.5421C17.0358 31.4475 17.0358 32.6431 17.6519 33.5304C17.999 33.9154 18.4995 34.1094 18.9999 34.0898C19.5003 34.1289 19.9827 33.9169 20.3283 33.5304C20.9444 32.625 20.9444 31.4294 20.3283 30.5421C20.0007 30.1571 19.5003 29.9631 18.9999 29.9827C18.4995 29.9631 17.9975 30.1556 17.6519 30.5421ZM30.3651 31.9498L33.7748 36.6916H30.308L27.6301 32.7017V36.6916H24.7403V27.4771H27.6301V31.3708L30.3275 27.4771H33.7763L30.3666 31.9498H30.3651Z" fill="white"/>
<path d="M141.712 35.2509L137.418 39.2062V44.4081H134.94V18.6602H137.418V36.1128L148.314 26.1398H151.346L143.543 33.6041L152.085 44.3927H149.053L141.712 35.2509ZM170.969 36.0512H155.702C155.778 37.8211 156.548 39.4678 157.872 40.6529C159.257 41.8379 161.042 42.4536 162.873 42.392C163.951 42.4074 165.013 42.1919 165.998 41.7918C166.952 41.3916 167.783 40.776 168.46 40.0065L169.845 41.6071C169.03 42.5767 167.983 43.3462 166.813 43.8233C163.889 44.9776 160.611 44.8237 157.825 43.3924C156.409 42.6229 155.24 41.4686 154.439 40.0835C153.624 38.6214 153.208 36.9746 153.224 35.3125C153.193 33.6503 153.593 32.0035 154.378 30.5415C155.117 29.1717 156.225 28.0175 157.579 27.2479C158.964 26.4476 160.549 26.0321 162.15 26.0475C163.751 26.0167 165.321 26.4323 166.69 27.2326C168.029 28.0175 169.122 29.141 169.845 30.5107C170.63 31.9882 171.03 33.6349 170.984 35.3125L170.969 36.0512ZM157.718 29.8335C156.517 30.9878 155.794 32.5576 155.686 34.2198H168.645C168.537 32.5576 167.814 30.9878 166.598 29.8335C164.074 27.5865 160.257 27.5865 157.718 29.8335ZM191.023 26.1552L181.911 46.5936C181.173 48.3019 180.311 49.5177 179.341 50.2411C178.325 50.9798 177.094 51.3492 175.832 51.3184C174.986 51.3184 174.155 51.1799 173.37 50.8874C172.631 50.6258 171.954 50.1949 171.384 49.6408L172.523 47.794C173.4 48.702 174.601 49.1945 175.863 49.1791C176.632 49.1945 177.387 48.9483 178.002 48.4866C178.726 47.8402 179.295 47.0245 179.649 46.1318L180.449 44.362L172.292 26.1398H174.863L181.742 41.6533L188.622 26.1552H191.023ZM47.0605 32.2913C47.0605 25.0887 52.6704 19.7559 60.324 19.7559C67.9777 19.7559 73.5875 25.0548 73.5875 32.2913C73.5875 39.5279 67.9423 44.8267 60.324 44.8267C52.7058 44.8267 47.0605 39.494 47.0605 32.2913ZM67.9069 32.2913C67.9069 27.685 64.6518 24.5346 60.3225 24.5346C55.9931 24.5346 52.7381 27.6866 52.7381 32.2913C52.7381 36.8961 55.9931 40.0481 60.3225 40.0481C64.6518 40.0481 67.9069 36.8961 67.9069 32.2913ZM107.445 25.7797L100.692 44.4097H95.4973L91.3065 32.8439L86.9771 44.4097H81.7829L75.065 25.7797H80.1561L84.5547 38.3844L89.1256 25.7797H93.6966L98.129 38.3844L102.666 25.7797H107.445ZM129.091 33.7457V44.4112H123.689V34.5768C123.689 31.5634 122.304 30.1783 119.914 30.1783C117.316 30.1783 115.446 31.7712 115.446 35.2001V44.4112H110.044V25.7812H115.205V27.9636C116.659 26.3707 118.841 25.5042 121.369 25.5042C125.767 25.5042 129.091 28.0667 129.091 33.7457Z" fill="#1B1B1B"/>
</svg>
