<svg width="200" height="53" viewBox="0 0 200 53" fill="none" xmlns="http://www.w3.org/2000/svg">
<path d="M40.1576 26.2382L24.4975 10.584L8.85547 26.2382V42.0848H40.1576V26.2382Z" fill="#C92251"/>
<path d="M40.1571 42.4509H8.85495C8.6626 42.4509 8.48828 42.296 8.48828 42.084V26.2373C8.48828 26.1411 8.52735 26.0448 8.60399 25.9862L24.2656 10.3125C24.4008 10.1771 24.6323 10.1771 24.7855 10.3125L40.4471 25.9862C40.5238 26.0629 40.5628 26.1411 40.5433 26.2373V42.0644C40.5238 42.2765 40.3705 42.4314 40.1586 42.4494L40.1571 42.4509ZM9.22012 41.7185H39.7904V26.3922L24.4955 11.0855L9.20058 26.3922V41.7185H9.22012Z" fill="#C92251"/>
<path d="M21.858 27.2787C22.5703 27.6637 23.1684 28.2622 23.5726 28.9555C24.4202 30.4595 24.4202 32.3093 23.5726 33.8132C23.1684 34.526 22.5703 35.105 21.858 35.5096C21.1282 35.9077 20.3103 36.1164 19.4791 36.1164C18.648 36.1164 17.8301 35.9077 17.1003 35.5096C16.388 35.105 15.7899 34.526 15.3857 33.8132C14.5381 32.3093 14.5381 30.4595 15.3857 28.9555C15.7899 28.2427 16.388 27.6637 17.1003 27.2787C17.8301 26.8805 18.648 26.6719 19.4791 26.6719C20.3103 26.6719 21.1282 26.8805 21.858 27.2787ZM18.1402 29.882C17.5241 30.7873 17.5241 31.9829 18.1402 32.8702C18.4873 33.2552 18.9877 33.4492 19.4881 33.4297C19.9886 33.4688 20.4709 33.2567 20.8166 32.8702C21.4327 31.9649 21.4327 30.7693 20.8166 29.882C20.489 29.497 19.9886 29.3029 19.4881 29.3225C18.9877 29.3029 18.4858 29.4954 18.1402 29.882ZM30.8534 31.2896L34.2631 36.0314H30.7963L28.1184 32.0416V36.0314H25.2286V26.817H28.1184V30.7106L30.8158 26.817H34.2646L30.8549 31.2896H30.8534Z" fill="white"/>
<path d="M142.2 34.5907L137.906 38.5461V43.748H135.428V18H137.906V35.4526L148.802 25.4797H151.834L144.031 32.944L152.573 43.7326H149.541L142.2 34.5907ZM171.457 35.391H156.19C156.267 37.1609 157.036 38.8077 158.36 39.9927C159.745 41.1778 161.53 41.7934 163.362 41.7318C164.439 41.7472 165.501 41.5318 166.486 41.1316C167.44 40.7315 168.271 40.1159 168.948 39.3463L170.334 40.9469C169.518 41.9165 168.471 42.686 167.302 43.1631C164.377 44.3174 161.099 44.1635 158.314 42.7322C156.898 41.9627 155.728 40.8084 154.928 39.4233C154.112 37.9612 153.697 36.3145 153.712 34.6523C153.681 32.9902 154.081 31.3434 154.866 29.8813C155.605 28.5116 156.713 27.3573 158.067 26.5878C159.453 25.7875 161.038 25.372 162.638 25.3873C164.239 25.3566 165.809 25.7721 167.179 26.5724C168.518 27.3573 169.61 28.4808 170.334 29.8505C171.118 31.328 171.519 32.9748 171.472 34.6523L171.457 35.391ZM158.206 29.1734C157.005 30.3276 156.282 31.8974 156.174 33.5596H169.133C169.025 31.8974 168.302 30.3276 167.086 29.1734C164.562 26.9264 160.745 26.9264 158.206 29.1734ZM191.511 25.4951L182.4 45.9334C181.661 47.6417 180.799 48.8576 179.829 49.5809C178.814 50.3196 177.582 50.689 176.32 50.6582C175.474 50.6582 174.643 50.5197 173.858 50.2273C173.119 49.9657 172.442 49.5347 171.873 48.9807L173.012 47.1338C173.889 48.0419 175.089 48.5344 176.351 48.519C177.121 48.5344 177.875 48.2881 178.491 47.8264C179.214 47.18 179.783 46.3643 180.137 45.4717L180.938 43.7018L172.781 25.4797H175.351L182.23 40.9931L189.11 25.4951H191.511ZM47.5488 31.6312C47.5488 24.4285 53.1586 19.0958 60.8123 19.0958C68.4659 19.0958 74.0758 24.3947 74.0758 31.6312C74.0758 38.8677 68.4305 44.1666 60.8123 44.1666C53.194 44.1666 47.5488 38.8339 47.5488 31.6312ZM68.3951 31.6312C68.3951 27.0249 65.1401 23.8745 60.8108 23.8745C56.4814 23.8745 53.2264 27.0264 53.2264 31.6312C53.2264 36.236 56.4814 39.3879 60.8108 39.3879C65.1401 39.3879 68.3951 36.236 68.3951 31.6312ZM107.933 25.1196L101.18 43.7495H95.9855L91.7947 32.1837L87.4654 43.7495H82.2711L75.5532 25.1196H80.6444L85.043 37.7242L89.6139 25.1196H94.1849L98.6173 37.7242L103.154 25.1196H107.933ZM129.58 33.0856V43.7511H124.178V33.9167C124.178 30.9032 122.793 29.5181 120.402 29.5181C117.805 29.5181 115.935 31.111 115.935 34.54V43.7511H110.533V25.1211H115.693V27.3034C117.147 25.7105 119.33 24.8441 121.857 24.8441C126.255 24.8441 129.58 27.4066 129.58 33.0856Z" fill="#1B1B1B"/>
</svg>
