<svg width="15" height="16" viewBox="0 0 15 16" fill="none" xmlns="http://www.w3.org/2000/svg">
<path d="M12.1875 6.75195C12.1875 8.09668 11.751 9.33887 11.0156 10.3467L14.7246 14.0586C15.0908 14.4248 15.0908 15.0195 14.7246 15.3857C14.3584 15.752 13.7637 15.752 13.3975 15.3857L9.68848 11.6738C8.68066 12.4121 7.43848 12.8457 6.09375 12.8457C2.72754 12.8457 0 10.1182 0 6.75195C0 3.38574 2.72754 0.658203 6.09375 0.658203C9.45996 0.658203 12.1875 3.38574 12.1875 6.75195ZM6.09375 10.9707C6.64776 10.9707 7.19635 10.8616 7.7082 10.6496C8.22004 10.4376 8.68511 10.1268 9.07686 9.73506C9.4686 9.34331 9.77936 8.87824 9.99137 8.3664C10.2034 7.85456 10.3125 7.30597 10.3125 6.75195C10.3125 6.19794 10.2034 5.64935 9.99137 5.13751C9.77936 4.62567 9.4686 4.16059 9.07686 3.76885C8.68511 3.3771 8.22004 3.06635 7.7082 2.85434C7.19635 2.64232 6.64776 2.5332 6.09375 2.5332C5.53974 2.5332 4.99115 2.64232 4.4793 2.85434C3.96746 3.06635 3.50239 3.3771 3.11064 3.76885C2.7189 4.16059 2.40815 4.62567 2.19613 5.13751C1.98412 5.64935 1.875 6.19794 1.875 6.75195C1.875 7.30597 1.98412 7.85456 2.19613 8.3664C2.40815 8.87824 2.7189 9.34331 3.11064 9.73506C3.50239 10.1268 3.96746 10.4376 4.4793 10.6496C4.99115 10.8616 5.53974 10.9707 6.09375 10.9707Z" fill="white"/>
</svg>
